<?xml version="1.0" encoding="UTF-8" standalone="no"?>
<svg id="svg2" xmlns:rdf="http://www.w3.org/1999/02/22-rdf-syntax-ns#" xmlns="http://www.w3.org/2000/svg" height="800pt" width="536pt" version="1.1" xmlns:cc="http://creativecommons.org/ns#" xmlns:dc="http://purl.org/dc/elements/1.1/" viewBox="0 0 536 911">
<path id="path4" d="m333.55 3.8223c-9.36 0.0584-18.69 0.6257-27.94 1.7031-38.68 3.6375-81.22 14.188-106.02 46.563-30.16 27.112-44.55 67.822-47.56 107.45-16.62-4.28-28.62 10.69-29.59 25.61-2.93 30.74 3.26 65.5 26.41 87.76-18.7 7.44-39.56 12.2-55.875 23.9-34.55 84.17-75.374 167.63-90.237 258.04 9.425 6.17 26.2 5.7 37.1 13.2-4.85 76.34-16.176 152.51-15.963 229.17-0.287 40.79 29.837 77.47 69.412 86.04 1.875 62.1-0.675 125.14 6.151 186.84-31.426 11.8-61.025 28.9-87.913 49-6.8996 2.9-3.9742 11.4 3.838 9.3 87.547 10.2 176.12 1 264.02 1.7 3.16-3.2 1.11-7.7 0.69-11.5-8.76-91.3 2.81-185.2 12.73-274.54 18.86-0.46 37.8-0.41 56.67-1.46 20.12 83.04 18.02 168.9 19.32 253.7 1.9 10.6-2.36 34.6 15.45 32.1 89.12 0 178.51 5.3 267.51-1.5 4.21-1.7 14.05 0 14.56-6.7-9.69-14.1-26.75-19.3-41.52-26.2-22.39-9.4-44.73-19.1-67.82-26.6-1.22-1.6 2.52-2.2 3.28-3.5 3.57-63 4.46-126.1 4.94-189.19 25.01-22.32 42.56-53.19 49.76-86.02 17.26-72.15 11.92-146.9 11.46-220.34 11.26-5.8 25.18-8.73 34.73-16.1-24.18-84.21-46.94-169.18-74.65-252.36-16.89-7.63-34.88-12.94-51.68-20.83 29.65-23.17 38.46-65.1 31.73-100.6-1.92-10.77-10.6-19.18-21.89-19.34-1.82-19.56-2.91-40.37-16.18-56.34-41.11-66.178-118.73-99.433-194.92-98.958zm0.26 7.0917c1.68-0.008 3.36-0.004 5.04 0.012 29.52 0.279 58.98 4.356 86.31 15.949 45.38 17 84.52 51.65 106.87 94.815 4.78 16.22 13.98 42.53-11.09 44-10.43-10.09-20.2-18.9-18.78-36.64 5.1 4 15.28 0.79 7.41-4.9-91.46-32.725-195.72-4.71-284.13-49.488-5.74-1.412-8.61-11.375-14.95-8.963 1.85 30.938 6.02 63.681-8.55 92.611-9.59 4.08-25.11-1.07-30.45 10.24-1.55-1.51-4.6-2.43-4.84-4.7-3.86-1.46-11.07-2.21-7.71-8.76 3.07-36.41 16.52-74.315 45.28-98.365 21.48-29.775 59.79-40.237 94.53-44.174 11.59-0.957 23.32-1.581 35.06-1.637zm-116.63 66.861c76.91 41.205 168.42 26.565 250.64 42.065 5.34 0.22 10.63 1.37 15.75 2.91 17.95-2.19 21.47 38.81 2.82 30.82-92.37-0.38-185.19-4.83-277.33 4.11 1.93-6.64 4.38-13.12 6.01-19.83 25.45 11.49 54.18 3.59 81.02 4.54 4.75-0.82 14.3 1.47 12.72-5.68-24.59-16.68-56.66-19.85-83.91-8.25-1.82 3.14-6.09 4.25-8.87 6.47 4.86-18.73 4.01-38.192 1.15-57.155zm238.49 42.455c-8.65 0.1-17.26 1.31-25.74 3.15-17.69 3.54-34.77 9.77-51.24 17.02-1.21 7.84 10.41 3.27 14.61 4.3 28.8-3.16 58.91 1.22 86.89-7.14 7.52-7.51-6.44-14.7-12.72-16.72-3.93-0.46-7.87-0.65-11.8-0.61zm-137.85 37.99c13.55 0.68 27.13 0.67 40.69 0.16-3.29 10.24-3.37 21-2.44 31.62-11.55-0.06-23.13 0.61-34.64-0.3 0.27-10.63-1.24-21.14-3.61-31.48zm73.03 0.32c36.32-0.03 72.62 1.63 108.95 1.45 2.06 16.01 4.93 33.21-3.19 48.15-41.5 5.16-83.22 8.94-124.96 11.7-10.55-17.45-13.79-43.8-5.95-60.95 8.39-0.24 16.77-0.34 25.15-0.35zm-80.07 0.14c5.11 20.28 5.95 42.07 1.27 62.61-37.54-0.98-75.39 2.37-112.69-2.94-6.53-0.91-4.22-9.19-6.47-13.76-7.88-14.48 9.56-26.52 13.9-39.3 28.58-4.28 57.62-5.22 86.49-5.82l17.5-0.79zm195.85 6.23l8.53 4.79-7.46 9.59-1.07-14.38zm-357.94 0.14c7.83 0.2 15.6 4.16 20.99 9.7-0.5 12.25-1.29 24.44 1.71 36.46-6.78-14.88-15.28-30.1-29.09-39.91-6.92-1.66-2.74-6.26 0.99-5.76 1.78-0.38 3.59-0.54 5.4-0.49zm397.95 0.28c2.62 0.11 4.96 0.8 5.54 3.17-13.63 9.65-23.4 23.32-30.99 37.94 4.7-15.96-6.23-40.92 18.28-40.82 1.67 0.07 4.55-0.4 7.17-0.29zm-351.33 0.88c8.03-0.19-6.28 16.05-7.95 21.01-9.53-7.16-15.02-24.01 4.7-20.4 1.35-0.4 2.42-0.59 3.25-0.61zm209.69 0.34c-19.04 7.2-18.09 42.34 1.28 48.36 19.95-5.49 20.26-45.4-1.28-48.36zm-140.62 0.91c-0.98-0.02-2 0.05-3.07 0.2-16.53 10.19-14.1 50.45 9.79 45.52 12.82-9.61 13.06-45.27-6.72-45.72zm293 4.98c10.53 23.26 4.17 51.21-4.6 74.1-8.29 18.12-26.73 40.61-49.16 30.95 4.72 18.84 2.35 38.81 2.33 58.12-8.66 13.55-21.39 28.23-32.27 37.42-37.58 36.31-86.74 59.72-137.14 72.29-12.42 5.03-24.2-3.73-35.72-7.41-47.28-20.56-95.91-47.36-124.57-91.76-4.65-19.02-3.28-39.16-5.99-58.59 3.79-0.48 23.51-4.5 14.63-9.96-24.34 9.21-42.28-18.37-49.96-37.51-5.98-21.31-12.34-46.42-2.05-67.33 10.21 3.89 17.31 14.74 23.47 23.65-21.8 6.44-13.5 35.37-2.71 48.62 1.7 5.01 13.1 16.89 16.25 7.79-12.33-9.77-22.43-26.48-20.2-42.92 0.42-7.39 11.22-5.98 13.55-0.52 6.55 13.78 8.03 29.26 12.48 43.73 2.48 1.49 6.46 0.45 5.4-3.05-1.98-10.86-4.53-21.66-7.66-32.26 42.98 15.99 90.3 7.39 135.13 9.54-3.79 22.25-23.6 44.37-16.53 66.91 31.05 9.05 65.5 10.14 96.87 2.25 11.06-24.22-9.4-47.85-16-70.66 34.92-0.89 69.71-5.14 104.43-8.74 4.73 0.7 20.85-6.78 16.93 3.35-2.87 5.21 6.66 6.66 6.12 1.3-1.66-11.7 11.94-7.4 18.59-10.2-1.78 12.76-12.36 30.05-6.49 40.9 12.85-10.01 2.89-47.99 26.61-46.81 6.9 16.92-4.8 35.57-17.5 46.32-0.81 10.14 13.03-0.96 14.52-5.92 11.12-13.2 20.37-43.82-1.8-48.98 4.22-9.27 13.81-18.7 23.04-24.62zm-40.54 6.75c1.79 6.41 2.85 31.84-12.9 28.24 2.75-9.73 5.76-20.75 12.9-28.24zm-342.04 3.67c9.01 6.95 11.35 21.88 14.2 32.99-16.5-0.06-12.75-21.99-14.2-32.99zm166.05 13.22c2.14-0.01 4.28-0.01 6.41 0.01 2.85 0.02 5.7 0.09 8.54 0.21 6.96 32.4 30.3 60.41 30.08 94.19-28.79 4.49-62.13 8.16-90.08-2.65 3.38-31.1 26.28-58.98 25.82-91.45 6.41-0.09 12.82-0.26 19.23-0.31zm-190.74 83.48c0.39-0.01 0.77 0 1.16 0.01 4.12 0.11 8.1 1.32 11.82 4.19 2.94 20.91 1.91 42.3 6.1 63.06 5.49 11.69 17.95 19.55 19.61 33.13 10.5 41.01 22.99 82.22 45.95 118.21 9.04 3.45 8.84-7.47 12.94-12.09 11.45-16.73 24.36-32.82 38.97-46.88 4.75 0.62 9.29 3.1 13.54 5.38 8.69 2.63 17.03 6.38 25.85 8.62-1.04 90.92-2.51 182.07 1.26 272.92-74.77 0.34-149.82-6.05-222.81-22.82 0.59-119.67 31.8-236.62 42.84-355.38-2.71-5.59-8.38 3.5-6.46 6.97-3.1 31.32-8.91 62.29-12.22 93.59-10.2-11.41-12.55-33.31-16.71-49.15 0.61-5.68-10.6-3.1-5.69 3 2.04 21.37 11.79 40.73 19.54 60.38-5.86 39.87-12.82 79.61-18.61 119.5-27.628-1.24-52.14-14.81-77.065-25.02-7.163-4.44-23.976-1.74-19.738-14.13 17.375-83.92 54.313-161.95 86.713-240.79 3.66-5.31 10.77-7.82 16.97-9.3 10.93-4.07 24-13.14 36.04-13.4zm374.87 5.58c19.2 0.06 37.21 13.96 55.82 19.01 27.83 80.61 48.78 163.71 73 245.49-24.99 11.25-50.86 22.7-77.41 28.86-5.12 2.62-15.28 6.46-22.19 5.72-2.8-41.48-8.17-82.74-12.86-124.03 1.4-6.69 4.29-13.13 7.5-19.15 3.59-13.69 9.93-26.54 14.32-39.99 1.01-2.86-3.63-7.01-5.3-3.17-4.2 10.6-7.72 21.48-12.01 32.07-2.39 5.64-3.56 12.96-7.15 17.39-2.9-22.33-8.51-44.18-12.24-66.34-5.15-6.02-1.2-31.74-12.05-25.21 0.05 11.66 6.34 23.49 6.78 35.55 22.26 99.74 28.2 206.36 33.75 309.6-4.28 3.94-13.04 2.96-18.99 5.47-66.69 12.08-134.41 18.23-202.1 19.65-2.94-91.02-3.46-182.18-1.28-273.25 16.67-2.46 32.03-10.04 48.19-13.86 16.84 16.54 30.57 35.95 40.52 57.35 3.36 6.58 8.43-2.59 11.37-5.23 30.04-39.32 56.08-83.51 65.38-132.68 1.41-3.28 3.73-8.47 7.19-9.2 13.9-17.33 4.71-42.1 8.96-62.51 3.65-1.09 7.24-1.55 10.8-1.54zm-114.38 59.54c-1.53 0.01-3.23 0.35-4.74 0.93-43.17 10.82-87.68 2.75-131.46 2.28-5.75-0.72-3.69 10.77 2.81 6.17 45.64 3.29 92.25 7.3 137.24-3.49 2.07-4.3-0.48-5.91-3.85-5.89zm79.12 22.47c-11.28 43.54-33.86 83.44-61.27 118.8-6.58 8.21-8.4-9.8-12.46-13.19-5.81-15.11-21.64-23.56-28.3-37.54 37.39-15.57 72.15-37.9 100.61-66.83 0.35-0.32 1.06-0.93 1.42-1.24zm-293.5 14.04c25.23 22.27 53.93 40.15 83.99 55-16 16.52-30.66 34.6-42.68 54.02-20.62-33.27-32.54-71.07-41.31-109.02zm261.86 90.9c-12.16 0.36-13.63 16.49-11.49 29.2-0.34 9.51 0.02 19.06 0.77 28.55-29.81 6.47-59.86-0.34-89.36-3.04-2.14 39.09-3.36 78.36-1.7 117.48 45.59 19.2 101.27 13.56 147.34-2.75-0.28-42.03-2.09-84.28-6.67-126.04-6.55-1.6-11.98 4.34-18.47 4.19-6.52-11.54 6.81-40.73-12.53-46.06-3.02-1.13-5.64-1.6-7.89-1.53zm4.02 7.84c3.78-0.08 7.22 0.61 7.49 4.71 0.57 23.58 2.7 47.14 2.77 70.72-1.01 3.74-5.85 3.62-8.92 4.64-4.35-24.31 0.48-49.76-3.53-73.97-6.86 3.63-7.13 3.81-5.91-5.74 2.01 0.24 5.16-0.29 8.1-0.36zm-8.19 11.25c2.86 10.58 0.28 25.38 1.21 37.56-2.78-10.51-3.48-25.31-1.21-37.56zm37.27 31.51c3.13 38.31 5.21 76.9 5.89 115.27-14.92 4.98-30.65 6.75-46.03 9.74-29.52 0.47-60.7 5.15-88.55-7.08 0.19-35.94-0.72-71.92 1.15-107.84 29.75 6.41 60.51 8.11 90.6 2.97 3.29 7.37-1.83 28.11 10.64 30.45 28.81-1.14-2.17-43.8 26.3-43.51zm-444.96 48.74c19.137 8.26 38.926 15.28 59.825 17.43-1.37 9.85-0.94 20.93-3.33 30.07-4.72 73.56-8.757 147.25-8.757 220.93-28.475-18.18-23.014-58.05-26.326-87.36 5.725-10.02-11.499-12.53-6.449-0.96 2.024 33.01-0.95 76.11 31.624 95.77 1.038 9.07-0.437 19.11-0.412 28.6-34.35-6.75-60.425-39.31-61.738-74.15-1.375-69.21 8.089-138.65 14.014-207.25 0.187-7.72 0.649-15.42 1.549-23.08zm572.7 0.1c2.92 4.51 0.7 14.11 1.47 20.51 1.38 54.27 3.19 109.86-5.6 164-5.65 39.43-18.49 81.92-49.04 108.66-2.49-8.34-0.17-21.35-0.76-31.38 25.7-26.03 29.49-65.56 25.91-100.32-4.54-2.1-8.95 1.44-5.91 7.25 1.11 26.51 0.74 56.83-16.6 78.68 0.28 1.41-2.48 4.89-3.61 3.11 0.93-76.92-4.8-153.71-9.61-230.45 22.16-3.55 42.5-13.86 63.75-20.06zm-65.23 137.65c7.15 0.02 0.74 15 2.15 20.11-17.58 4.06-35.6 5.77-53.25 9.46-1.54-6.44-2.53-13.1-2.38-19.71 17.73-2.48 35.19-6.43 52.74-9.82 0.26-0.03 0.51-0.04 0.74-0.04zm-449.86 1.25c19.9 2.62 40.13 7.25 59.92 11.16-1.09 7.04-0.48 16.68-3.57 21.86-20.44-7.81-63.377-1.76-56.35-33.02zm389.91 9.72c-1.87 15.88 2.41 30.71 19.84 23.2 14.66-0.91 29.06-6.47 43.55-6.57 2.4 105.41 2.72 210.94-2.52 316.32 1.23 12.8-15.51 7.4-23.38 10.5-27.81 3.1-55.73 5.8-83.73 6.5-22.89 2.5-49.82 0.2-73.86-4.4 2.79-74.81-2.14-149.86-17.37-223.23 11.11-1.75 22.37-2.81 33.57-3.94 16.36-2.4 33-3.81 49.2-6.81 8.34-8.26-12.31-5.01-16.64-4.38-65.17 10.47-131.58 13.82-197.26 6.46-0.8 11.39 17.25 4.99 24.97 8.8 11.6-0.25 23.16 1.12 34.74 1.44-4.61 77.23-17.67 154.25-13.68 231.96-12.42 0.9-24.94 2.2-37.39 1.4-33.59 0.8-69.03-1.4-101.33-7-9.03-2.7-20.68-1.6-28.12-7.7-6.027-108.6-5.552-217.54-1.9-326.2 6.47 1.81 15.4 2.46 19.97 6.29 14.44 0.57 28.74 7.81 42.95 6.56 4.17-7.83 2.41-18.12 5.05-26.74 8.66-0.17 17.28 1.14 25.78 2.63-0.25 9.45-2.48 18.78-2.47 28.23 23.6 3.35 47.88 3.72 71.78 4.31 14.8 24.6 49.46 16.5 73.28 18.52 19.2-1.21 48.84 3.6 58.44-18.37 23.28-2.65 46.94-3.82 69.84-8.74 1.22-8.4-1.01-16.73-0.78-25.1 9.06-1.76 18.32-2.63 27.47-3.94zm-40 4.01c8.12-0.02 6.35 11.76 7.37 19.69-21.47 2.6-42.96 5.78-64.52 7.24-1.11-7.16-2.54-14.25-3.86-21.37 18.52-0.4 37.01-1.97 55.4-4.23 2.26-0.91 4.11-1.32 5.61-1.33zm-250.96 2.19c21.47 1.44 42.86 4.43 64.42 4.7-0.96 6.65-1.67 13.34-2.67 19.99-21.49 1.31-42.85-1.94-64.32-2.38 0.15-7.5 1.49-14.91 2.57-22.31zm183.06 4.72c2.67 11.18 10.94 33.14-7.23 35.23-31.21 5.49-64.39 6.69-95.38-0.7-15.44-3.08-14.43-24.81-7.5-34.06 36.67 1.56 73.43 1.1 110.11-0.47zm159.84 338.13c32.81 11.7 65.17 24.8 96.74 39.6 4.71 3.1 12.88 6.2 14.64 11.1-27.1 3.2-54.53 3.9-81.79 3.9-65.39 0.9-130.66-1.8-196.02-1.3-6.16-15.8-3.57-33.3-5.58-49.9 46.36 8.1 93.58 4.1 140.13-0.3 9.94-1.5 21.34-2.8 31.88-3.1zm-435.15 3.8h1.2c1.92 0 3.84 0.3 5.69 0.9 30.36 6.3 61.43 8.5 92.36 10.1 20.46-0.4 40.96 0.3 61.39-1.6 1.82 13.9 0.73 28.1 3.37 41.9-14.87-0.9-29.79-0.9-44.6 0.7-61.75 0.6-126.18 3-186.1 0.2-8.875-0.1-17.624-1.6-26.424-2.5 25.925-19.6 55.112-35.1 85.034-47.8 2.53-1.2 5.29-1.9 8.08-1.9z" transform="scale(.8)"/>
</svg>
