<svg xmlns="http://www.w3.org/2000/svg" width="300" height="450" fill="none" viewBox="0 0 235 386">
  <path fill="#247AAA" stroke="#020201" stroke-miterlimit="10" stroke-width="3" d="M26.38 1.59h181.33A25.412 25.412 0 0 1 233.12 27v345.62a11.513 11.513 0 0 1-11.51 11.51H13.2a11.512 11.512 0 0 1-11.51-11.51V26.27A24.69 24.69 0 0 1 26.38 1.59Z"/>
  <path fill="#F4F4F4" stroke="#020201" stroke-miterlimit="10" stroke-width="3" d="M31.59 12.53h171a24.002 24.002 0 0 1 24 24v325.81a10.849 10.849 0 0 1-10.85 10.85H19.16a10.85 10.85 0 0 1-10.85-10.85V35.81a23.28 23.28 0 0 1 23.28-23.28Z"/>
  <path fill="#F7E171" stroke="#060606" stroke-miterlimit="10" stroke-width="2.62" d="M123.72 221.25H55.48a10.002 10.002 0 0 0-10 10v80.5a10 10 0 0 0 10 10h116.43a10.001 10.001 0 0 0 10-10V211.34a10.001 10.001 0 0 0-10-10H143.8a10 10 0 0 0-10 9.82v.31a10 10 0 0 1-10.08 9.78Z"/>
  <path fill="#fff" stroke="#060606" stroke-miterlimit="10" stroke-width="2.21" d="M128.615 110.24 64.486 87 34 171.126l64.129 23.24 30.486-84.126Z"/>
  <path fill="#fff" stroke="#060606" stroke-miterlimit="10" stroke-width="2.21" d="m147.758 134.854-55.8-39.23-51.463 73.198 55.799 39.231 51.464-73.199Z"/>
  <path fill="#9293C6" stroke="#060606" stroke-miterlimit="10" stroke-width="2.04" d="M147.72 304.68H90.93v-62.74h47.05l5.51 5.7 4.23 4.28v52.76Z"/>
  <path stroke="#060606" stroke-miterlimit="10" stroke-width="2.04" d="M130.26 242.18v8.55h-27.81v-8.79m2.14 62.62V284.6h26.02v20.67m-19.6-12.12h13.9m-13.54 6.06h12.83"/>
  <path fill="#FDEA6C" stroke="#020201" stroke-miterlimit="10" stroke-width="3" d="M168.04 21.19h-99.8v7.84h99.8v-7.84Z"/>
  <path stroke="#020201" stroke-miterlimit="10" stroke-width="3" d="M122.42 366.89c6.826 0 12.36-5.534 12.36-12.36s-5.534-12.36-12.36-12.36-12.36 5.534-12.36 12.36 5.534 12.36 12.36 12.36Z"/>
  <path fill="#000" d="M57.852 62H54.76v-8.727h3.119c.878 0 1.633.174 2.267.524.633.347 1.12.845 1.461 1.496.344.65.516 1.429.516 2.335 0 .909-.172 1.69-.516 2.344a3.544 3.544 0 0 1-1.47 1.504c-.636.35-1.397.524-2.284.524Zm-1.248-1.581h1.172c.545 0 1.004-.097 1.376-.29.375-.196.656-.498.844-.907.19-.412.285-.944.285-1.594 0-.645-.095-1.172-.285-1.581a1.848 1.848 0 0 0-.84-.903c-.372-.194-.83-.29-1.376-.29h-1.176v5.565Zm8.717 1.705c-.417 0-.79-.073-1.116-.218a1.798 1.798 0 0 1-.776-.652c-.187-.29-.28-.65-.28-1.082 0-.364.066-.67.2-.916.133-.248.315-.446.545-.597.23-.15.491-.264.784-.34.295-.078.605-.132.929-.163.38-.04.687-.076.92-.11.233-.038.402-.091.507-.163a.356.356 0 0 0 .158-.315v-.025c0-.27-.085-.48-.256-.627-.167-.147-.406-.221-.716-.221-.326 0-.586.072-.78.217a1 1 0 0 0-.383.537l-1.679-.136c.085-.398.253-.742.503-1.032.25-.292.573-.517.967-.673.398-.16.858-.239 1.381-.239.364 0 .712.043 1.044.128.335.085.632.218.89.397.262.178.468.409.619.69.15.278.225.612.225 1.001V62h-1.721v-.908h-.051a1.846 1.846 0 0 1-.422.541 1.952 1.952 0 0 1-.635.363 2.623 2.623 0 0 1-.857.128Zm.52-1.253c.267 0 .503-.053.708-.158.204-.108.365-.253.481-.435a1.12 1.12 0 0 0 .175-.617v-.695a.974.974 0 0 1-.234.102 4.245 4.245 0 0 1-.329.081c-.122.023-.244.044-.366.064a99.05 99.05 0 0 0-.332.047c-.213.031-.4.08-.559.15a.892.892 0 0 0-.37.276.675.675 0 0 0-.133.426c0 .247.09.436.269.567.182.128.412.192.69.192ZM70.416 62v-6.545h1.815V62h-1.815Zm.912-7.39a.986.986 0 0 1-.695-.268.87.87 0 0 1-.285-.652c0-.25.095-.464.285-.643a.978.978 0 0 1 .695-.273c.27 0 .5.091.69.273.193.179.29.393.29.643 0 .253-.097.47-.29.652a.971.971 0 0 1-.69.269Zm4.173-1.337V62h-1.816v-8.727h1.816Zm2.575 11.181a3.59 3.59 0 0 1-.648-.055 2.351 2.351 0 0 1-.494-.132l.409-1.355c.213.065.404.1.575.107a.73.73 0 0 0 .447-.12c.128-.085.232-.23.312-.434l.106-.278-2.348-6.732h1.91l1.354 4.806h.068l1.368-4.806h1.922l-2.544 7.252c-.122.353-.288.66-.498.92-.208.265-.47.468-.789.61-.318.145-.701.218-1.15.218Zm12.216-11.181h1.824v6.085c0 .563-.127 1.051-.38 1.466-.25.415-.598.734-1.044.959-.446.224-.964.336-1.555.336a3.584 3.584 0 0 1-1.432-.277 2.288 2.288 0 0 1-1.014-.852c-.25-.384-.374-.865-.37-1.445h1.836c.006.23.053.428.14.593a.962.962 0 0 0 .371.375c.16.085.347.128.563.128.227 0 .419-.049.575-.145a.93.93 0 0 0 .362-.435 1.77 1.77 0 0 0 .124-.703v-6.085Zm6.273 8.855c-.662 0-1.235-.14-1.718-.422a2.887 2.887 0 0 1-1.112-1.185c-.261-.508-.392-1.098-.392-1.768 0-.676.13-1.267.392-1.773a2.852 2.852 0 0 1 1.112-1.184c.483-.285 1.056-.427 1.718-.427.662 0 1.233.142 1.713.426a2.85 2.85 0 0 1 1.116 1.185c.261.506.392 1.097.392 1.773 0 .67-.13 1.26-.392 1.768a2.88 2.88 0 0 1-1.116 1.185c-.48.281-1.051.422-1.713.422Zm.008-1.406c.301 0 .553-.086.754-.256.202-.173.354-.41.456-.708.105-.298.158-.637.158-1.018 0-.38-.053-.72-.158-1.018a1.586 1.586 0 0 0-.456-.708 1.117 1.117 0 0 0-.754-.26c-.304 0-.56.087-.767.26a1.6 1.6 0 0 0-.464.708 3.132 3.132 0 0 0-.154 1.018c0 .38.051.72.154 1.018a1.6 1.6 0 0 0 .464.708c.207.17.463.256.767.256Zm8.591-1.509v-3.758h1.815V62h-1.742v-1.189h-.069a1.927 1.927 0 0 1-.737.925c-.341.233-.757.35-1.248.35-.438 0-.823-.1-1.155-.3a2.043 2.043 0 0 1-.78-.847c-.185-.367-.279-.806-.281-1.317v-4.167h1.815v3.843c.003.387.106.692.311.916.205.225.479.337.822.337.219 0 .424-.05.614-.149a1.17 1.17 0 0 0 .46-.452c.12-.199.178-.444.175-.737ZM108.431 62v-6.545h1.76v1.142h.069c.119-.407.319-.714.6-.92.282-.211.606-.316.972-.316a2.758 2.758 0 0 1 .571.064v1.61a2.357 2.357 0 0 0-.354-.068c-.15-.02-.288-.03-.413-.03-.267 0-.506.059-.716.175a1.287 1.287 0 0 0-.494.477c-.12.205-.179.44-.179.708V62h-1.816Zm6.726-3.784V62h-1.815v-6.545h1.73v1.154h.076a1.83 1.83 0 0 1 .729-.903c.341-.225.754-.337 1.24-.337.455 0 .851.1 1.189.299.338.199.601.483.788.852.188.366.282.804.282 1.312V62h-1.816v-3.844c.003-.4-.099-.713-.306-.937-.208-.227-.493-.341-.857-.341-.244 0-.46.052-.648.157a1.1 1.1 0 0 0-.434.46 1.588 1.588 0 0 0-.158.72Zm7.516 3.908a2.73 2.73 0 0 1-1.117-.218 1.798 1.798 0 0 1-.775-.652c-.188-.29-.281-.65-.281-1.082 0-.364.066-.67.2-.916.133-.248.315-.446.545-.597.23-.15.492-.264.784-.34.296-.078.606-.132.929-.163.381-.04.688-.076.921-.11.233-.038.402-.091.507-.163a.356.356 0 0 0 .158-.315v-.025c0-.27-.086-.48-.256-.627-.168-.147-.406-.221-.716-.221-.327 0-.587.072-.78.217a.998.998 0 0 0-.383.537l-1.679-.136a2.28 2.28 0 0 1 .503-1.032 2.41 2.41 0 0 1 .967-.673c.398-.16.858-.239 1.381-.239.363 0 .711.043 1.044.128.335.085.632.218.89.397.262.178.468.409.618.69.151.278.226.612.226 1.001V62h-1.722v-.908h-.051a1.83 1.83 0 0 1-.422.541 1.942 1.942 0 0 1-.635.363 2.618 2.618 0 0 1-.856.128Zm.52-1.253c.267 0 .503-.053.707-.158.205-.108.365-.253.482-.435a1.12 1.12 0 0 0 .174-.617v-.695a.948.948 0 0 1-.234.102 4.312 4.312 0 0 1-.328.081c-.122.023-.244.044-.367.064l-.332.047a2.245 2.245 0 0 0-.558.15.894.894 0 0 0-.371.276.675.675 0 0 0-.132.426c0 .247.09.436.268.567.182.128.412.192.691.192Zm6.39-7.598V62h-1.816v-8.727h1.816Zm8.309 3.643v1.44h-3.98v-1.44h3.98ZM143.755 62h-1.977l3.012-8.727h2.378L150.177 62H148.2l-2.187-6.733h-.068L143.755 62Zm-.124-3.43h4.671v1.44h-4.671v-1.44Zm7.596 3.43v-8.727h1.845v3.848h.116l3.14-3.848h2.212l-3.239 3.907 3.277 4.82h-2.207l-2.391-3.588-.908 1.108V62h-1.845Zm8.274 0v-8.727h3.494c.642 0 1.178.095 1.607.285.429.19.751.455.967.793.216.335.324.721.324 1.159 0 .34-.068.64-.205.9a1.767 1.767 0 0 1-.562.63 2.308 2.308 0 0 1-.81.345v.085a1.99 1.99 0 0 1 1.645 1.01c.182.31.273.68.273 1.108 0 .463-.115.877-.346 1.24-.227.36-.563.646-1.009.857-.446.21-.996.315-1.65.315h-3.728Zm1.845-1.508h1.504c.514 0 .889-.098 1.125-.295a.984.984 0 0 0 .354-.792 1.17 1.17 0 0 0-.175-.64 1.188 1.188 0 0 0-.498-.434 1.713 1.713 0 0 0-.763-.158h-1.547v2.319Zm0-3.567h1.368c.253 0 .477-.044.673-.132a1.13 1.13 0 0 0 .469-.384c.116-.165.175-.362.175-.592a.959.959 0 0 0-.337-.763c-.222-.193-.537-.29-.946-.29h-1.402v2.16Z"/>
</svg>
