<svg xmlns="http://www.w3.org/2000/svg" width="300" height="450" fill="none" viewBox="0 0 413 740">
  <path fill="#000" stroke="#020201" stroke-miterlimit="10" stroke-width="5.51" d="M48.35 3h314.8a46.671 46.671 0 0 1 46.67 46.67v666.32a21.136 21.136 0 0 1-6.192 14.948 21.136 21.136 0 0 1-14.948 6.192H24.14A21.138 21.138 0 0 1 3 715.99V48.34A45.35 45.35 0 0 1 48.35 3Z"/>
  <path fill="#232323" stroke="#A60000" stroke-miterlimit="10" stroke-width="5.51" d="M57.39 24h296.79a44 44 0 0 1 44 44v628.23c0 5.286-2.1 10.355-5.837 14.093a19.933 19.933 0 0 1-14.093 5.837H34.57a19.93 19.93 0 0 1-19.89-19.93V66.75A42.75 42.75 0 0 1 57.43 24h-.04Z"/>
  <path fill="#fff" stroke="#020201" stroke-miterlimit="10" stroke-width="5.27" d="M295.42 37.46H119.98v13.78h175.44V37.46Z"/>
  <path fill="#fff" stroke="#020201" stroke-miterlimit="10" stroke-width="5.51" d="M215.22 704.02c11.996 0 21.72-10.615 21.72-23.71s-9.724-23.71-21.72-23.71c-11.996 0-21.72 10.615-21.72 23.71s9.724 23.71 21.72 23.71Z"/>
  <path fill="#B5B5B5" d="M147.743 275.044S197.953 307.86 356 308.363v1.257l-70.411 44.594s-121.081 24.727-203.562-45.558l65.716-33.612Z"/>
  <path fill="#D1D1D1" d="M147.743 267.5s50.21 39.061 208.257 39.564v1.257l-70.411 44.594s-121.081 24.518-203.562-45.726l65.716-39.689Z"/>
  <path fill="#B5B5B5" d="M147.743 272.11s50.21 32.816 208.257 33.319v1.258l-70.411 44.593s-121.081 24.728-203.562-45.557l65.716-33.613Z"/>
  <path fill="#D1D1D1" d="M147.744 264.566S197.953 303.627 356 304.13v1.257l-70.411 44.594s-121.081 24.518-203.562-45.725l65.717-39.69Z"/>
  <path fill="#B5B5B5" d="M147.743 269.595s50.21 32.817 208.257 33.32v1.257l-70.411 44.593s-121.081 24.728-203.562-45.557l65.716-33.613Z"/>
  <path fill="#D1D1D1" d="M147.743 262.051s50.21 39.061 208.257 39.564v1.258l-70.411 44.593s-121.081 24.518-203.562-45.725l65.716-39.69Z"/>
  <path fill="#B5B5B5" d="M147.743 266.661s50.21 32.817 208.257 33.32v1.257l-70.411 44.594s-121.081 24.727-203.562-45.558l65.716-33.613Z"/>
  <path fill="#D1D1D1" d="M147.744 259.117S197.953 298.179 356 298.681v1.258l-70.411 44.593S164.508 369.05 82.027 298.807l65.717-39.69Z"/>
  <path fill="#B5B5B5" d="M147.744 257.441S197.953 296.502 356 297.005v1.676l-70.411 44.594s-121.081 21.081-203.562-49.204l65.717-36.63Z"/>
  <path fill="#D1D1D1" d="M147.744 243.778S197.953 296.502 356 297.005l-71.249 44.133s-120.243 15.59-202.724-54.695l65.717-42.665Z"/>
  <path stroke="#3B5BA3" stroke-linecap="round" stroke-miterlimit="10" stroke-width="2" d="m143.762 243.149-22.171-15.004M80.35 284.138 56 263.183m33.403 13.076L74.65 264.566m3.395 39.69-14.753-11.694m36.338-23.135-23.68-19.362m40.947 7.083-22.8-18.609m36.379 10.31-17.77-12.028m-1.76 23.428-14.04-11.4"/>
  <path fill="#B5B5B5" d="m328.876 296.243-67.48 46.029.472.693 67.48-46.029-.472-.693Zm-195.089-34.066c9.556 7.963 43.127 28.499 59.011 28.122 5.448-.125 20.243-8.131 20.243-8.131-30.679-4.274-65.339-28.625-65.339-28.625l-13.915 8.634Z"/>
  <path fill="#B5B5B5" d="M275.573 317.122c-54.275-1.466-92.373-13.998-114.711-24.224-24.267-11.107-35.876-22.045-36.002-22.171l1.174-1.216c.125.126 11.567 10.897 35.624 21.878 22.213 10.142 60.017 22.548 113.998 24.015l-.083 1.718Zm-10.604 8.592c-55.616-1.676-93.588-14.166-115.675-24.35-23.973-11.065-34.954-21.92-35.079-22.004l1.173-1.173c.126.126 10.939 10.771 34.703 21.752 21.919 10.1 59.681 22.506 114.92 24.183l-.042 1.592Z"/>
  <path fill="#B5B5B5" d="M242.924 332.546c-47.905-1.258-81.392-12.238-101.006-21.249-21.333-9.766-31.433-19.447-31.559-19.531l1.173-1.215c.084.084 10.101 9.597 31.182 19.279 19.489 8.927 52.683 19.824 100.294 21.081l-.084 1.635Z"/>
  <path fill="#293E68" d="m297.953 302.747-27.997-38.097c-5.28-7.209-15.423-8.76-22.632-3.437-7.208 5.281-8.759 15.423-3.436 22.632l27.829 38.097 26.236-19.195Z"/>
  <path fill="#FFB266" d="m264.801 312.428 17.477 23.932c.839 1.131 2.473 1.383 3.605.544l1.131-.838c1.132-.838 1.383-2.473.545-3.604.838 1.131 2.473 1.383 3.604.545l1.132-.838c1.132-.839 1.383-2.473.545-3.605.838 1.132 2.473 1.383 3.604.545l1.132-.838c1.131-.838 1.383-2.473.545-3.605.838 1.132 2.472 1.383 3.604.545l1.132-.838c1.131-.838 1.383-2.473.545-3.604l-2.264-3.06c2.683-2.221 3.186-6.161 1.132-8.969l-11.316-15.423-26.153 19.111Z"/>
  <path fill="#293E68" d="M245.355 230.827c-5.491-7.041-15.675-8.298-22.716-2.766-7.041 5.491-8.299 15.675-2.766 22.716l24.937 34.158c5.49 7.041 15.675 8.298 22.716 2.766 7.041-5.491 8.298-15.675 2.766-22.716l-24.937-34.158Z"/>
  <path fill="#191919" d="M222.513 267.667c-6.832 4.862-8.466 14.334-3.604 21.165l33.068 46.689c4.861 6.832 14.333 8.466 21.165 3.605 6.831-4.862 8.466-14.334 3.604-21.165l-33.068-46.689c-4.82-6.832-14.292-8.466-21.165-3.605Z"/>
  <path fill="#000" d="m217.442 290.635-10.185-4.275-5.49 13.076 2.263.964-13.495 25.901 17.435-13.034 9.472-22.632Z"/>
  <path fill="#D1D1D1" d="M209.521 309.536s-8.676 3.856-9.514 9.682l7.921-5.91 1.593-3.772Z"/>
  <path fill="#191919" d="M278.339 332.588c3.227-7.712-.419-16.639-8.131-19.866l-52.766-22.087-11.735 27.996 52.766 22.087c7.753 3.228 16.638-.419 19.866-8.13Z"/>
  <path fill="#383838" d="M203.192 267.667c-6.832 4.862-8.466 14.334-3.604 21.165l33.067 46.689c4.862 6.832 14.334 8.466 21.166 3.605 6.831-4.862 8.466-14.334 3.604-21.165l-33.068-46.689c-4.862-6.832-14.334-8.466-21.165-3.605Z"/>
  <path fill="#191919" d="m195.396 294.448-10.477-3.436-4.443 13.495 2.347.755-11.442 26.865 16.346-14.334 7.669-23.345Z"/>
  <path fill="#D1D1D1" d="M189.026 313.937s-8.34 4.527-8.717 10.394l7.46-6.538 1.257-3.856Z"/>
  <path fill="#383838" d="M259.437 331.456c2.598-7.963-1.719-16.555-9.682-19.153l-54.359-17.855-9.471 28.835 54.358 17.855c7.963 2.64 16.513-1.719 19.154-9.682Z"/>
  <path fill="#304E9C" d="M246.402 236.276c0-6.413-6.664-11.61-13.076-11.61h-25.398a11.665 11.665 0 0 0-11.274 11.526v46.354h54.945s-5.197-45.851-5.197-46.27Z"/>
  <path fill="#D1D1D1" d="M233.829 228.816s4.275 15.968 5.281 22.464c.251 1.676 1.551 6.58-3.018 6.58-4.568 0-4.275-5.826-4.275-5.826l2.012-23.218Z"/>
  <path fill="#FFB266" d="M227.375 203.04c0 4.401 2.724 7.963 6.077 7.963 3.353 0 6.035-3.562 6.077-7.963h-12.154Z"/>
  <path fill="#FFC885" d="M217.945 194.784c-4.401 0-4.904 3.981-4.904 3.981v4.275c0 8.299 4.61 8.005 4.61 8.005v13.663l16.429 4.15.461-3.982-1.927-9.765c3.562 0 4.652-3.102 4.652-4.988v-15.339h-19.321Z"/>
  <path fill="#000851" d="M225.111 200.609h3.311a.554.554 0 0 0 .545-.544.554.554 0 0 0-.545-.545h-3.311a.554.554 0 0 0-.544.545c.042.293.251.544.544.544Zm8.005 0h3.311a.554.554 0 0 0 .545-.544.554.554 0 0 0-.545-.545h-3.311a.554.554 0 0 0-.544.545c.042.293.251.544.544.544Zm-15.842 6.874.084-.126c.168-.209.168-.503-.042-.671l-2.473-2.179c-.209-.168-.503-.168-.67.042l-.084.126c-.168.209-.168.503.042.67l2.473 2.18a.51.51 0 0 0 .67-.042Zm14.166 1.886c-1.257 0-2.724-.252-3.227-1.257-.084-.126 0-.294.126-.378.125-.084.293 0 .377.126.629 1.257 3.562 1.006 4.61.796.168-.042.293.084.335.21.042.168-.083.293-.209.335-.084 0-.964.168-2.012.168Zm-1.76-5.742a.712.712 0 1 0 0-1.425.712.712 0 0 0 0 1.425Zm5.951 0a.713.713 0 1 0 .001-1.425.713.713 0 0 0-.001 1.425Zm-3.898-1.006 3.06 4.443h-3.06v-4.443Z"/>
  <path fill="#000851" d="M237.978 189.545c0 1.131-.545 2.976-2.598 2.976h-12.909s-1.634-.168-2.64.586c-.671-.377-1.425-.628-2.264-.628-2.514 0-4.526 2.053-4.526 4.526v5.951l4.61.042s4.15 5.155 4.485 5.449l.042-11.19h15.046c2.64 0 3.688-2.389 3.688-3.689.042-1.006-.671-4.023-2.934-4.023Z"/>
  <path fill="#FFB266" d="M232.614 215.111h-6.161l8.088 9.723-1.927-9.723Z"/>
  <path fill="#000851" d="M237.098 197.298a4.148 4.148 0 1 0 0-8.298 4.15 4.15 0 0 0 0 8.298Z"/>
  <path fill="#3B5BA3" d="M221.381 236.863c-2.179-8.676-10.938-13.957-19.614-11.778-8.676 2.18-13.956 10.939-11.777 19.615l8.927 41.366c2.179 8.676 10.939 13.957 19.614 11.777 8.676-2.179 13.957-10.939 11.777-19.614l-8.927-41.366Z"/>
  <path fill="#FFC885" d="m206 319.344 6.245 28.96c.293 1.383 1.676 2.263 3.059 1.97l1.383-.293c1.383-.294 2.264-1.677 1.97-3.06.294 1.383 1.677 2.263 3.06 1.97l1.383-.293c1.383-.294 2.263-1.677 1.97-3.06.293 1.383 1.676 2.263 3.059 1.97l1.383-.293c1.383-.294 2.263-1.677 1.97-3.06.293 1.383 1.676 2.263 3.06 1.97l1.383-.293c1.383-.294 2.263-1.677 1.969-3.06l-.796-3.73c3.311-.922 5.407-4.317 4.652-7.754l-4.107-18.692L206 319.344Z"/>
  <path fill="#3B5BA3" d="m240.241 323.954-10.1-46.186c-1.928-8.718-10.52-14.25-19.279-12.364-8.718 1.928-14.25 10.52-12.364 19.279l9.933 46.144 31.81-6.873Z"/>
  <path fill="#fff" d="M79.503 105.545V131h-4.648L63.78 114.979h-.186V131h-5.382v-25.455h4.723l10.988 16.009h.223v-16.009h5.357Zm13.047 25.828c-1.963 0-3.654-.398-5.07-1.193-1.41-.804-2.495-1.939-3.257-3.406-.762-1.475-1.143-3.219-1.143-5.232 0-1.964.38-3.688 1.143-5.171.762-1.483 1.835-2.639 3.22-3.468 1.391-.828 3.024-1.242 4.896-1.242 1.26 0 2.432.203 3.518.609a7.789 7.789 0 0 1 2.858 1.802c.82.803 1.459 1.814 1.914 3.032.456 1.21.684 2.627.684 4.251v1.454h-16.12v-3.281h11.136c0-.762-.166-1.438-.497-2.026a3.559 3.559 0 0 0-1.38-1.379c-.58-.34-1.255-.51-2.026-.51-.803 0-1.516.186-2.138.559a3.928 3.928 0 0 0-1.441 1.479 4.178 4.178 0 0 0-.535 2.051v3.12c0 .944.174 1.761.522 2.448a3.82 3.82 0 0 0 1.504 1.591c.647.373 1.413.559 2.3.559a5 5 0 0 0 1.615-.248 3.35 3.35 0 0 0 1.256-.746c.348-.331.613-.737.795-1.218l4.897.323a6.684 6.684 0 0 1-1.529 3.083c-.762.87-1.748 1.549-2.958 2.038-1.201.481-2.59.721-4.163.721Zm15.847-.373-5.195-19.091h5.357l2.958 12.827h.174l3.083-12.827h5.257l3.132 12.752h.162l2.908-12.752h5.345L126.395 131h-5.606l-3.281-12.006h-.236L113.991 131h-5.594Zm41.889-13.647-4.847.298a2.5 2.5 0 0 0-.535-1.118 2.827 2.827 0 0 0-1.081-.808c-.439-.207-.965-.311-1.578-.311-.821 0-1.513.174-2.076.522-.563.34-.845.796-.845 1.367 0 .456.182.841.547 1.156.364.315.99.568 1.877.758l3.455.696c1.856.382 3.24.995 4.151 1.84.912.845 1.367 1.955 1.367 3.331 0 1.251-.368 2.349-1.106 3.293-.729.945-1.732 1.683-3.008 2.213-1.268.522-2.73.783-4.387.783-2.527 0-4.541-.526-6.041-1.579-1.491-1.06-2.365-2.502-2.622-4.325l5.208-.273c.157.77.538 1.359 1.143 1.765.605.397 1.38.596 2.324.596.928 0 1.674-.178 2.237-.534.572-.365.862-.833.87-1.405-.008-.48-.211-.874-.609-1.18-.397-.315-1.01-.556-1.839-.721l-3.306-.659c-1.864-.373-3.252-1.019-4.164-1.939-.903-.92-1.355-2.092-1.355-3.517 0-1.227.332-2.283.995-3.17.671-.886 1.611-1.57 2.821-2.051 1.218-.48 2.643-.72 4.276-.72 2.411 0 4.308.509 5.692 1.528 1.392 1.019 2.204 2.407 2.436 4.164Zm9.064-11.808V131h-5.295v-25.455h5.295Zm12.942 25.828c-1.964 0-3.654-.398-5.071-1.193-1.409-.804-2.494-1.939-3.257-3.406-.762-1.475-1.143-3.219-1.143-5.232 0-1.964.381-3.688 1.143-5.171.763-1.483 1.836-2.639 3.219-3.468 1.392-.828 3.025-1.242 4.897-1.242 1.26 0 2.432.203 3.518.609a7.785 7.785 0 0 1 2.858 1.802c.821.803 1.459 1.814 1.915 3.032.455 1.21.683 2.627.683 4.251v1.454h-16.12v-3.281h11.136c0-.762-.166-1.438-.497-2.026a3.552 3.552 0 0 0-1.38-1.379c-.58-.34-1.255-.51-2.026-.51-.803 0-1.516.186-2.137.559a3.922 3.922 0 0 0-1.442 1.479 4.186 4.186 0 0 0-.535 2.051v3.12c0 .944.174 1.761.522 2.448a3.827 3.827 0 0 0 1.504 1.591c.647.373 1.413.559 2.3.559.588 0 1.127-.082 1.615-.248a3.352 3.352 0 0 0 1.256-.746c.348-.331.613-.737.795-1.218l4.897.323a6.69 6.69 0 0 1-1.528 3.083c-.763.87-1.749 1.549-2.959 2.038-1.201.481-2.589.721-4.163.721Zm22.372-19.464v3.977h-11.497v-3.977h11.497Zm-8.887-4.574h5.295v17.799c0 .488.074.87.224 1.143.149.265.356.452.621.559.274.108.588.162.945.162.248 0 .497-.021.745-.062.249-.05.44-.087.572-.112l.833 3.94c-.265.083-.638.178-1.119.286-.48.116-1.064.186-1.752.211-1.276.05-2.395-.12-3.356-.51-.953-.389-1.695-.994-2.225-1.814-.53-.821-.791-1.856-.783-3.107v-18.495Zm22.49 4.574v3.977h-11.496v-3.977h11.496Zm-8.886-4.574h5.294v17.799c0 .488.075.87.224 1.143.149.265.356.452.622.559.273.108.588.162.944.162.249 0 .497-.021.746-.062.249-.05.439-.087.572-.112l.832 3.94c-.265.083-.638.178-1.118.286-.481.116-1.065.186-1.753.211-1.276.05-2.394-.12-3.356-.51-.952-.389-1.694-.994-2.224-1.814-.531-.821-.792-1.856-.783-3.107v-18.495Zm20.831 24.038c-1.964 0-3.654-.398-5.071-1.193-1.409-.804-2.494-1.939-3.257-3.406-.762-1.475-1.143-3.219-1.143-5.232 0-1.964.381-3.688 1.143-5.171.763-1.483 1.836-2.639 3.219-3.468 1.392-.828 3.025-1.242 4.897-1.242 1.26 0 2.432.203 3.518.609a7.785 7.785 0 0 1 2.858 1.802c.821.803 1.459 1.814 1.914 3.032.456 1.21.684 2.627.684 4.251v1.454h-16.12v-3.281h11.136c0-.762-.166-1.438-.497-2.026a3.559 3.559 0 0 0-1.38-1.379c-.58-.34-1.255-.51-2.026-.51-.803 0-1.516.186-2.137.559a3.922 3.922 0 0 0-1.442 1.479 4.186 4.186 0 0 0-.535 2.051v3.12c0 .944.174 1.761.522 2.448a3.827 3.827 0 0 0 1.504 1.591c.647.373 1.413.559 2.3.559.588 0 1.127-.082 1.615-.248a3.352 3.352 0 0 0 1.256-.746c.348-.331.613-.737.795-1.218l4.897.323a6.681 6.681 0 0 1-1.529 3.083c-.762.87-1.748 1.549-2.958 2.038-1.201.481-2.589.721-4.163.721Zm12.217-.373v-19.091h5.133v3.331h.199c.348-1.185.933-2.08 1.753-2.685.82-.613 1.765-.919 2.834-.919.265 0 .551.016.857.049.307.034.576.079.808.137v4.698a6.967 6.967 0 0 0-1.031-.199 9.278 9.278 0 0 0-1.206-.087c-.779 0-1.475.17-2.088.51a3.744 3.744 0 0 0-1.442 1.392c-.348.597-.522 1.284-.522 2.063V131h-5.295Z"/>
</svg>
