<?xml version="1.0" encoding="UTF-8" standalone="no"?>
<svg
   version="1.2"
   width="15mm"
   height="40mm"
   viewBox="0 0 14789 22125"
   preserveAspectRatio="xMidYMid"
   fill-rule="evenodd"
   stroke-width="28.222"
   stroke-linejoin="round"
   xml:space="preserve"
   id="svg258"
   sodipodi:docname="paper-airplanes1a.svg"
   inkscape:version="1.2.2 (732a01da63, 2022-12-09, custom)"
   xmlns:inkscape="http://www.inkscape.org/namespaces/inkscape"
   xmlns:sodipodi="http://sodipodi.sourceforge.net/DTD/sodipodi-0.dtd"
   xmlns="http://www.w3.org/2000/svg"
   xmlns:svg="http://www.w3.org/2000/svg"
   xmlns:ooo="http://xml.openoffice.org/svg/export"><sodipodi:namedview
   id="namedview260"
   pagecolor="#ffffff"
   bordercolor="#000000"
   borderopacity="0.25"
   inkscape:showpageshadow="2"
   inkscape:pageopacity="0.0"
   inkscape:pagecheckerboard="0"
   inkscape:deskcolor="#d1d1d1"
   inkscape:document-units="mm"
   showgrid="false"
   inkscape:zoom="1.3825878"
   inkscape:cx="310.28771"
   inkscape:cy="244.83074"
   inkscape:window-width="1850"
   inkscape:window-height="1016"
   inkscape:window-x="0"
   inkscape:window-y="0"
   inkscape:window-maximized="1"
   inkscape:current-layer="layer2" />
 <defs
   class="ClipPathGroup"
   id="defs81">
  <clipPath
   id="presentation_clip_path"
   clipPathUnits="userSpaceOnUse">
   <rect
   x="0"
   y="0"
   width="21000"
   height="29700"
   id="rect75" />
  </clipPath>
  <clipPath
   id="presentation_clip_path_shrink"
   clipPathUnits="userSpaceOnUse">
   <rect
   x="21"
   y="29"
   width="20958"
   height="29641"
   id="rect78" />
  </clipPath>
 </defs>
 <defs
   class="TextShapeIndex"
   id="defs85">
  <g
   ooo:slide="id1"
   ooo:id-list="id3 id4 id5 id6 id7 id8 id9 id10 id11 id12 id13 id14 id15 id16 id17 id18 id19 id20"
   id="g83" />
 </defs>
 <defs
   class="EmbeddedBulletChars"
   id="defs117">
  <g
   id="bullet-char-template-57356"
   transform="matrix(4.8828125e-4,0,0,-4.8828125e-4,0,0)">
   <path
   d="M 580,1141 1163,571 580,0 -4,571 Z"
   id="path87" />
  </g>
  <g
   id="bullet-char-template-57354"
   transform="matrix(4.8828125e-4,0,0,-4.8828125e-4,0,0)">
   <path
   d="M 8,1128 H 1137 V 0 H 8 Z"
   id="path90" />
  </g>
  <g
   id="bullet-char-template-10146"
   transform="matrix(4.8828125e-4,0,0,-4.8828125e-4,0,0)">
   <path
   d="M 174,0 602,739 174,1481 1456,739 Z M 1358,739 309,1346 659,739 Z"
   id="path93" />
  </g>
  <g
   id="bullet-char-template-10132"
   transform="matrix(4.8828125e-4,0,0,-4.8828125e-4,0,0)">
   <path
   d="M 2015,739 1276,0 H 717 l 543,543 H 174 v 393 h 1086 l -543,545 h 557 z"
   id="path96" />
  </g>
  <g
   id="bullet-char-template-10007"
   transform="matrix(4.8828125e-4,0,0,-4.8828125e-4,0,0)">
   <path
   d="m 0,-2 c -7,16 -16,29 -25,39 l 381,530 c -94,256 -141,385 -141,387 0,25 13,38 40,38 9,0 21,-2 34,-5 21,4 42,12 65,25 l 27,-13 111,-251 280,301 64,-25 24,25 c 21,-10 41,-24 62,-43 C 886,937 835,863 770,784 769,783 710,716 594,584 L 774,223 c 0,-27 -21,-55 -63,-84 l 16,-20 C 717,90 699,76 672,76 641,76 570,178 457,381 L 164,-76 c -22,-34 -53,-51 -92,-51 -42,0 -63,17 -64,51 -7,9 -10,24 -10,44 0,9 1,19 2,30 z"
   id="path99" />
  </g>
  <g
   id="bullet-char-template-10004"
   transform="matrix(4.8828125e-4,0,0,-4.8828125e-4,0,0)">
   <path
   d="M 285,-33 C 182,-33 111,30 74,156 52,228 41,333 41,471 c 0,78 14,145 41,201 34,71 87,106 158,106 53,0 88,-31 106,-94 l 23,-176 c 8,-64 28,-97 59,-98 l 735,706 c 11,11 33,17 66,17 42,0 63,-15 63,-46 V 965 c 0,-36 -10,-64 -30,-84 L 442,47 C 390,-6 338,-33 285,-33 Z"
   id="path102" />
  </g>
  <g
   id="bullet-char-template-9679"
   transform="matrix(4.8828125e-4,0,0,-4.8828125e-4,0,0)">
   <path
   d="M 813,0 C 632,0 489,54 383,161 276,268 223,411 223,592 c 0,181 53,324 160,431 106,107 249,161 430,161 179,0 323,-54 432,-161 108,-107 162,-251 162,-431 0,-180 -54,-324 -162,-431 C 1136,54 992,0 813,0 Z"
   id="path105" />
  </g>
  <g
   id="bullet-char-template-8226"
   transform="matrix(4.8828125e-4,0,0,-4.8828125e-4,0,0)">
   <path
   d="m 346,457 c -73,0 -137,26 -191,78 -54,51 -81,114 -81,188 0,73 27,136 81,188 54,52 118,78 191,78 73,0 134,-26 185,-79 51,-51 77,-114 77,-187 0,-75 -25,-137 -76,-188 -50,-52 -112,-78 -186,-78 z"
   id="path108" />
  </g>
  <g
   id="bullet-char-template-8211"
   transform="matrix(4.8828125e-4,0,0,-4.8828125e-4,0,0)">
   <path
   d="M -4,459 H 1135 V 606 H -4 Z"
   id="path111" />
  </g>
  <g
   id="bullet-char-template-61548"
   transform="matrix(4.8828125e-4,0,0,-4.8828125e-4,0,0)">
   <path
   d="m 173,740 c 0,163 58,303 173,419 116,115 255,173 419,173 163,0 302,-58 418,-173 116,-116 174,-256 174,-419 0,-163 -58,-303 -174,-418 C 1067,206 928,148 765,148 601,148 462,206 346,322 231,437 173,577 173,740 Z"
   id="path114" />
  </g>
 </defs>
 
 <g
   inkscape:groupmode="layer"
   id="layer2"
   inkscape:label="Layer 1"><path
     id="path210"
     style="display:inline;fill:#002b22"
     d="M 3112.9962 17120.984 L 3107.0017 17174.004 L 3103.0226 17205.01 L 3093.9792 17213.02 L 3101.0072 17222.011 L 3101.0072 17225.991 L 3106.0199 17227.024 L 5123.9845 19571.015 L 5265.0095 21681.016 L 5256.9997 21682.979 L 5267.0249 21724.011 L 5270.0221 21767.987 L 5279.0138 21767.987 L 5283.9748 21786.022 L 6156.9964 21554.977 L 7175.0221 24381.006 L 7224.9932 24363.023 L 7250.0046 24353.979 L 7253.0018 24356.976 L 7262.9754 24349.018 L 7275.016 24344.988 L 7273.0006 24339.975 L 14221.982 18541.983 L 14235.005 18540.019 L 14234.023 18532.009 L 14261.98 18507.979 L 14238.002 18480.023 L 14243.014 18435.012 L 14195.989 18429.018 L 14194.025 18427.003 L 14192.01 18429.018 L 3112.9962 17120.984 z M 3260.9975 17245.007 L 13785.988 18487.981 L 5203.9796 19528.021 L 5217.0021 19515.98 L 3260.9975 17245.007 z M 14002.977 18586.011 L 7235.0184 24233.987 L 5988.9963 20776.006 L 14002.977 18586.011 z M 13398.983 18640.995 L 5903.0067 20690.017 L 5905.0221 20694.978 L 5898.976 20691.981 L 5874.0163 20731.978 L 5861.9756 20736.991 L 5866.0064 20745.982 L 5362.0062 21553.995 L 5234.9855 19631.012 L 13398.983 18640.995 z M 5911.0166 20873.003 L 6120.9779 21454.983 L 5436.0068 21636.006 L 5911.0166 20873.003 z "
     transform="translate(-2119,-2256)" /><path
     id="path168"
     style="display:inline"
     d="M 16889.003 9568.0084 L 5809.9892 10875.991 L 5808.0255 10873.975 L 5806.0101 10875.991 L 5758.9845 10881.985 L 5763.9971 10926.995 L 5740.0193 10955.004 L 5767.9762 10978.982 L 5766.9944 10986.992 L 5780.0168 10989.007 L 12728.998 16786.999 L 12726.983 16792.012 L 12739.024 16795.991 L 12748.997 16804.001 L 12751.994 16801.004 L 12777.006 16809.995 L 12826.977 16827.979 L 13845.003 14002.001 L 14718.024 14232.995 L 14722.985 14215.012 L 14731.977 14215.012 L 14735.026 14170.983 L 14744.999 14130.004 L 14736.989 14127.988 L 14878.014 12017.988 L 16895.979 9673.9968 L 16900.992 9673.0149 L 16900.992 9668.9842 L 16908.02 9659.9925 L 16898.976 9651.9826 L 16894.997 9620.9768 L 16889.003 9568.0084 z M 16741.001 9691.9802 L 14784.997 11963.004 L 14798.019 11974.993 L 6216.0109 10935.005 L 16741.001 9691.9802 z M 5999.0215 11032.984 L 14013.003 13222.979 L 12766.98 16681.011 L 5999.0215 11032.984 z M 6603.0157 11088.019 L 14767.013 12077.984 L 14639.993 14001.019 L 14135.993 13193.007 L 14140.023 13184.015 L 14127.983 13179.002 L 14103.023 13139.005 L 14096.977 13142.002 L 14098.992 13136.99 L 6603.0157 11088.019 z M 14090.982 13319.976 L 14565.992 14082.978 L 13881.021 13902.007 L 14090.982 13319.976 z "
     transform="translate(-2119,-2256)" /><path
     id="path126"
     style="display:inline"
     d="M 2138.0169 2256 L 2132.0225 2309.02 L 2127.9917 2339.9742 L 2119 2347.984 L 2125.9763 2356.9757 L 2125.9763 2361.0065 L 2130.9889 2361.9884 L 4149.0053 4705.9796 L 4289.9786 6815.98 L 4282.0204 6817.9954 L 4291.994 6858.9748 L 4294.9912 6903.0031 L 4303.9829 6903.0031 L 4308.9955 6920.9865 L 5182.0172 6689.9929 L 6199.9912 9516.0219 L 6250.014 9497.9869 L 6275.0254 9488.9952 L 6278.0226 9491.9924 L 6287.9962 9483.9825 L 6299.9851 9480.0035 L 6298.0214 9474.9908 L 13247.003 3676.9985 L 13260.025 3674.9831 L 13258.992 3667.025 L 13287 3642.9954 L 13263.023 3614.9868 L 13267.984 3569.9766 L 13221.01 3563.9822 L 13218.994 3562.0185 L 13216.979 3563.9822 L 2138.0169 2256 z M 2286.0182 2380.0234 L 12811.009 3622.9967 L 4229.0004 4662.9849 L 4242.0229 4650.9959 L 2286.0182 2380.0234 z M 13027.998 3720.9752 L 6259.9875 9369.0025 L 5014.0171 5911.0224 L 13027.998 3720.9752 z M 12424.004 3776.0106 L 4927.9758 5824.9811 L 4929.9912 5829.9937 L 4923.9967 5826.9965 L 4898.9853 5866.994 L 4886.9964 5872.0067 L 4890.9755 5880.9984 L 4386.9752 6689.011 L 4260.0063 4765.976 L 12424.004 3776.0106 z M 4935.9857 6008.019 L 5145.9987 6589.999 L 4460.9759 6771.0215 L 4935.9857 6008.019 z "
     transform="translate(-2119,-2256)" /></g>
</svg>
