<svg xmlns="http://www.w3.org/2000/svg" width="500" height="400" fill="none" viewBox="0 0 1045 649">
  <rect width="1045" height="649" fill="#242424" rx="31"/>
  <rect width="1009" height="589" x="18" y="44" fill="#3C3C3C" rx="28"/>
  <circle cx="83" cy="29.5" r="8.5" fill="#45EB60"/>
  <path fill="#DF3F3F" d="M66 29.5a8.5 8.5 0 1 1-17 0 8.5 8.5 0 0 1 17 0Z"/>
  <path fill="#3AA2DC" d="M117 29.5a8.5 8.5 0 1 1-17 0 8.5 8.5 0 0 1 17 0Z"/>
  <path fill="#3991F9" d="M529.31 270.737c0 5.596-2.1 10.987-5.886 15.107a22.323 22.323 0 0 1-14.554 7.143v45.75h-46.83a22.332 22.332 0 0 0-22.325-21.857 22.332 22.332 0 0 0-22.325 21.857H372v-136.88h45.39A22.332 22.332 0 0 1 439.715 180a22.332 22.332 0 0 1 22.325 21.857h46.83v46.67a22.319 22.319 0 0 1 20.44 22.21Z"/>
  <path fill="#FE4877" d="M648.86 202.187v136.88h-45.39a22.332 22.332 0 0 0-22.325-21.857 22.332 22.332 0 0 0-22.325 21.857h-46.83v-45.72c.62.06 1.26.09 1.9.09a22.338 22.338 0 0 0 15.49-37.963 22.34 22.34 0 0 0-15.49-6.707c-.64 0-1.28 0-1.9.09v-46.67h46.83a22.332 22.332 0 0 1 22.325-21.857 22.332 22.332 0 0 1 22.325 21.857h45.39Z"/>
  <path fill="#48C23E" d="M529.31 415.737c0 5.596-2.1 10.987-5.886 15.107a22.323 22.323 0 0 1-14.554 7.143v45.75h-46.83a22.332 22.332 0 0 0-22.325-21.857 22.332 22.332 0 0 0-22.325 21.857H372v-136.88h45.39A22.332 22.332 0 0 1 439.715 325a22.332 22.332 0 0 1 22.325 21.857h46.83v46.67a22.319 22.319 0 0 1 20.44 22.21Z"/>
  <path fill="#D58D38" d="M648.86 347.187v136.88h-45.39a22.332 22.332 0 0 0-22.325-21.857 22.332 22.332 0 0 0-22.325 21.857h-46.83v-45.72c.62.06 1.26.09 1.9.09a22.338 22.338 0 0 0 15.49-37.963 22.34 22.34 0 0 0-15.49-6.707c-.64 0-1.28 0-1.9.09v-46.67h46.83a22.332 22.332 0 0 1 22.325-21.857 22.332 22.332 0 0 1 22.325 21.857h45.39Z"/>
  <path fill="#fff" d="M350.464 99.913c-.17-1.718-.901-3.054-2.194-4.005-1.293-.952-3.047-1.428-5.263-1.428-1.506 0-2.777.213-3.814.64-1.037.411-1.832.986-2.386 1.725a4.153 4.153 0 0 0-.81 2.514c-.028.782.135 1.463.49 2.046.37.582.874 1.086 1.513 1.513a11.46 11.46 0 0 0 2.216 1.086c.838.299 1.733.554 2.685.767l3.92.938c1.903.426 3.651.994 5.241 1.704 1.591.711 2.969 1.584 4.134 2.621a10.89 10.89 0 0 1 2.706 3.665c.653 1.406.987 3.018 1.001 4.837-.014 2.67-.696 4.985-2.045 6.946-1.335 1.946-3.267 3.458-5.796 4.538-2.514 1.065-5.546 1.598-9.098 1.598-3.522 0-6.59-.54-9.204-1.619-2.599-1.08-4.631-2.678-6.094-4.794-1.449-2.131-2.209-4.766-2.28-7.905h8.928c.099 1.463.518 2.684 1.257 3.664.753.966 1.754 1.698 3.004 2.195 1.264.483 2.692.725 4.283.725 1.562 0 2.919-.228 4.07-.682 1.164-.455 2.066-1.087 2.706-1.897.639-.809.958-1.74.958-2.791 0-.98-.291-1.804-.873-2.471-.568-.668-1.406-1.236-2.514-1.705-1.094-.469-2.437-.895-4.027-1.278l-4.752-1.194c-3.679-.894-6.584-2.294-8.714-4.197-2.131-1.903-3.189-4.467-3.175-7.692-.014-2.642.689-4.95 2.109-6.924 1.435-1.975 3.402-3.516 5.902-4.624 2.5-1.108 5.341-1.662 8.523-1.662 3.239 0 6.065.554 8.48 1.662 2.429 1.108 4.318 2.65 5.668 4.624 1.349 1.974 2.045 4.26 2.088 6.86h-8.843ZM365.939 131V98.273h9.076V131h-9.076Zm4.559-36.946c-1.349 0-2.507-.448-3.473-1.342-.951-.91-1.427-1.996-1.427-3.26 0-1.25.476-2.323 1.427-3.218.966-.909 2.124-1.363 3.473-1.363 1.35 0 2.5.454 3.452 1.363.966.895 1.449 1.968 1.449 3.218 0 1.264-.483 2.35-1.449 3.26-.952.894-2.102 1.342-3.452 1.342ZM382.286 131V98.273h8.651v5.774h.383c.682-1.918 1.818-3.431 3.409-4.538 1.591-1.108 3.495-1.662 5.711-1.662 2.244 0 4.154.56 5.731 1.683 1.577 1.108 2.628 2.613 3.154 4.517h.34c.668-1.875 1.875-3.374 3.623-4.496 1.761-1.136 3.842-1.704 6.243-1.704 3.054 0 5.532.973 7.436 2.919 1.917 1.931 2.876 4.673 2.876 8.224V131h-9.055v-20.22c0-1.818-.483-3.182-1.449-4.091-.966-.909-2.174-1.364-3.622-1.364-1.648 0-2.934.526-3.857 1.577-.923 1.037-1.385 2.408-1.385 4.112V131h-8.8v-20.412c0-1.605-.461-2.883-1.385-3.835-.909-.952-2.109-1.428-3.6-1.428-1.009 0-1.918.256-2.728.767-.795.497-1.427 1.201-1.896 2.11-.469.895-.703 1.946-.703 3.153V131h-9.077Zm69.514.639c-3.31 0-6.172-.703-8.587-2.109-2.4-1.421-4.254-3.395-5.561-5.923-1.307-2.543-1.96-5.491-1.96-8.843 0-3.38.653-6.335 1.96-8.863 1.307-2.543 3.161-4.517 5.561-5.924 2.415-1.42 5.277-2.13 8.587-2.13 3.309 0 6.164.71 8.565 2.13 2.415 1.407 4.276 3.381 5.582 5.924 1.307 2.528 1.961 5.483 1.961 8.863 0 3.352-.654 6.3-1.961 8.843-1.306 2.528-3.167 4.502-5.582 5.923-2.401 1.406-5.256 2.109-8.565 2.109Zm.042-7.031c1.506 0 2.763-.426 3.772-1.278 1.008-.867 1.768-2.046 2.279-3.537.526-1.492.789-3.189.789-5.093 0-1.903-.263-3.601-.789-5.092-.511-1.492-1.271-2.671-2.279-3.537-1.009-.866-2.266-1.3-3.772-1.3-1.52 0-2.798.434-3.835 1.3-1.023.866-1.797 2.045-2.322 3.537-.512 1.491-.767 3.189-.767 5.092 0 1.904.255 3.601.767 5.093.525 1.491 1.299 2.67 2.322 3.537 1.037.852 2.315 1.278 3.835 1.278Zm31.044-12.528V131h-9.076V98.273h8.65v5.774h.384a9.129 9.129 0 0 1 3.643-4.517c1.705-1.122 3.772-1.683 6.201-1.683 2.272 0 4.254.497 5.944 1.491 1.69.994 3.004 2.415 3.942 4.261.937 1.833 1.406 4.02 1.406 6.563V131h-9.077v-19.219c.015-2.003-.497-3.565-1.534-4.687-1.037-1.137-2.464-1.705-4.282-1.705-1.222 0-2.301.263-3.239.789-.923.525-1.648 1.292-2.173 2.301-.512.994-.774 2.194-.789 3.601Zm71.24-10.611c-.299-1.037-.718-1.953-1.257-2.749a7.77 7.77 0 0 0-1.982-2.045 8.5 8.5 0 0 0-2.642-1.3c-.98-.298-2.067-.447-3.26-.447-2.23 0-4.19.553-5.881 1.662-1.676 1.107-2.983 2.72-3.92 4.836-.938 2.102-1.406 4.673-1.406 7.713s.461 5.625 1.385 7.756c.923 2.131 2.23 3.757 3.92 4.879 1.69 1.108 3.686 1.662 5.987 1.662 2.088 0 3.871-.369 5.348-1.108 1.492-.753 2.628-1.811 3.409-3.175.796-1.363 1.194-2.975 1.194-4.836l1.875.277h-11.25v-6.946h18.26v5.497c0 3.835-.81 7.131-2.429 9.886-1.62 2.742-3.85 4.858-6.691 6.35-2.841 1.477-6.094 2.216-9.758 2.216-4.091 0-7.685-.902-10.782-2.706-3.096-1.819-5.511-4.397-7.244-7.735-1.719-3.352-2.578-7.329-2.578-11.932 0-3.537.511-6.69 1.534-9.46 1.037-2.784 2.486-5.142 4.347-7.074a18.78 18.78 0 0 1 6.498-4.41c2.472-1.009 5.149-1.513 8.033-1.513 2.472 0 4.773.362 6.903 1.087 2.131.71 4.02 1.718 5.668 3.025a16.395 16.395 0 0 1 4.07 4.666c1.051 1.79 1.725 3.765 2.024 5.924h-9.375Zm25.872 30.149c-2.089 0-3.949-.362-5.583-1.087-1.633-.738-2.926-1.825-3.878-3.26-.937-1.449-1.406-3.253-1.406-5.412 0-1.818.334-3.345 1.001-4.581a8.117 8.117 0 0 1 2.728-2.983c1.15-.752 2.457-1.321 3.92-1.704a29.918 29.918 0 0 1 4.645-.81c1.903-.199 3.438-.383 4.602-.554 1.165-.184 2.01-.454 2.536-.809.525-.356.788-.881.788-1.577v-.128c0-1.349-.426-2.393-1.278-3.132-.838-.739-2.031-1.108-3.58-1.108-1.633 0-2.933.362-3.899 1.087-.966.71-1.605 1.605-1.918 2.684l-8.394-.682c.426-1.988 1.264-3.707 2.514-5.156 1.25-1.463 2.862-2.585 4.836-3.366 1.989-.796 4.29-1.193 6.904-1.193 1.818 0 3.558.213 5.22.639 1.676.426 3.161 1.086 4.453 1.981a9.635 9.635 0 0 1 3.09 3.452c.752 1.392 1.129 3.061 1.129 5.007V131h-8.608v-4.538h-.256a9.24 9.24 0 0 1-2.109 2.706c-.881.767-1.939 1.37-3.175 1.811-1.236.426-2.663.639-4.282.639Zm2.599-6.264c1.335 0 2.514-.263 3.537-.789 1.023-.539 1.825-1.264 2.408-2.173.582-.909.873-1.939.873-3.089v-3.473c-.284.184-.675.355-1.172.511-.483.142-1.03.277-1.64.405-.611.113-1.222.22-1.833.319l-1.662.235c-1.065.156-1.995.405-2.791.745-.795.341-1.413.803-1.854 1.385-.44.569-.66 1.279-.66 2.131 0 1.236.447 2.18 1.342 2.834.909.639 2.06.959 3.452.959ZM605.47 131V98.273h8.65v5.774h.384c.682-1.918 1.818-3.431 3.409-4.538 1.591-1.108 3.494-1.662 5.71-1.662 2.245 0 4.155.56 5.732 1.683 1.576 1.108 2.628 2.613 3.153 4.517h.341c.668-1.875 1.875-3.374 3.622-4.496 1.762-1.136 3.843-1.704 6.243-1.704 3.054 0 5.533.973 7.436 2.919 1.918 1.931 2.877 4.673 2.877 8.224V131h-9.056v-20.22c0-1.818-.483-3.182-1.449-4.091-.966-.909-2.173-1.364-3.622-1.364-1.648 0-2.933.526-3.856 1.577-.924 1.037-1.385 2.408-1.385 4.112V131h-8.8v-20.412c0-1.605-.462-2.883-1.385-3.835-.909-.952-2.109-1.428-3.601-1.428-1.008 0-1.917.256-2.727.767-.796.497-1.428 1.201-1.896 2.11-.469.895-.703 1.946-.703 3.153V131h-9.077Zm69.641.639c-3.366 0-6.264-.682-8.693-2.045-2.415-1.378-4.276-3.324-5.582-5.838-1.307-2.529-1.961-5.519-1.961-8.97 0-3.367.654-6.322 1.961-8.864 1.306-2.543 3.146-4.524 5.518-5.945 2.386-1.42 5.185-2.13 8.395-2.13 2.159 0 4.169.348 6.03 1.044a13.371 13.371 0 0 1 4.9 3.089c1.407 1.378 2.5 3.111 3.282 5.199.781 2.074 1.171 4.503 1.171 7.287v2.493h-27.634v-5.625h19.09c0-1.307-.284-2.465-.852-3.473a6.096 6.096 0 0 0-2.365-2.365c-.994-.583-2.152-.874-3.473-.874-1.378 0-2.599.32-3.665.959a6.719 6.719 0 0 0-2.471 2.535c-.597 1.052-.902 2.223-.916 3.516v5.348c0 1.619.298 3.019.894 4.198.611 1.179 1.471 2.088 2.579 2.727 1.107.639 2.421.959 3.941.959 1.009 0 1.932-.142 2.77-.426a5.76 5.76 0 0 0 2.152-1.279 5.558 5.558 0 0 0 1.364-2.088l8.395.554c-.426 2.017-1.3 3.778-2.621 5.284-1.307 1.492-2.997 2.656-5.071 3.494-2.06.824-4.439 1.236-7.138 1.236Z"/>
</svg>
