<svg xmlns="http://www.w3.org/2000/svg" width="500" height="400" fill="none" viewBox="0 0 1865 1356">
  <path fill="#C84348" d="M1670.14 678h-1.63l.52-.42c.37.09.74.25 1.11.42Z"/>
  <path fill="#2B4271" d="M1862.73 23.73H7.52v1332.16h1855.21V23.73Z"/>
  <path fill="#D6802B" d="M1864.87 0H0v114.23h1864.87V0Z"/>
  <path fill="#C84348" d="M54.37 81.97c11.178 0 20.24-9.062 20.24-20.24 0-11.178-9.062-20.24-20.24-20.24-11.178 0-20.24 9.062-20.24 20.24 0 11.178 9.062 20.24 20.24 20.24Zm54.5 0c11.178 0 20.24-9.062 20.24-20.24 0-11.178-9.062-20.24-20.24-20.24-11.178 0-20.24 9.062-20.24 20.24 0 11.178 9.062 20.24 20.24 20.24Zm54.18 0c11.178 0 20.24-9.062 20.24-20.24 0-11.178-9.062-20.24-20.24-20.24-11.178 0-20.24 9.062-20.24 20.24 0 11.178 9.062 20.24 20.24 20.24Z"/>
  <path fill="#D6802B" d="M1247.28 709.786a7.945 7.945 0 0 0 4.59 4.028c2 .681 4.19.538 6.09-.398l42.49-20.952c-.05.784-.08 1.574-.07 2.364l-42.48 20.952a7.988 7.988 0 0 0-4.25 4.573 8.031 8.031 0 0 0-.46 3.149c.06 1.071.33 2.118.81 3.08.47.963 1.13 1.82 1.94 2.52a7.991 7.991 0 0 0 8.99.993l39.15-19.308c.19.382.38.767.59 1.152.47.884.97 1.737 1.49 2.559l-37.22 18.356a8.04 8.04 0 0 0-2.58 1.854c-.73.786-1.3 1.71-1.66 2.718a7.857 7.857 0 0 0-.46 3.15 8.04 8.04 0 0 0 .8 3.08 7.976 7.976 0 0 0 1.95 2.52 7.948 7.948 0 0 0 5.94 1.908 7.993 7.993 0 0 0 3.05-.916l42.35-20.887c.35.211.71.417 1.08.611l-37.18 18.34a7.978 7.978 0 0 0 .96 14.714c2 .68 4.2.536 6.1-.4l85.28-42.056-.44-.887 22.83-12.14-34.52-64.886-34.08 18.123-41.78-10.695a6.596 6.596 0 0 0-2.57-.14c-.86.123-1.69.414-2.44.857a6.695 6.695 0 0 0-1.92 1.723 6.699 6.699 0 0 0-1.11 2.326l-.68 2.651c-.43 1.699-.18 3.5.72 5.008a6.604 6.604 0 0 0 4.05 3.036l27.65 7.076.34.087-.78.39-58.97 29.083a8.013 8.013 0 0 0-4.01 4.599 7.987 7.987 0 0 0 .42 6.085ZM1218 380.18c0 1.764.59 3.477 1.68 4.869l58.3 75.111.78-.606 16.47 19.93 56.64-46.823-24.57-29.754 2.09-43.079a6.704 6.704 0 0 0-.38-2.55 6.465 6.465 0 0 0-1.33-2.211 6.633 6.633 0 0 0-2.07-1.534 6.665 6.665 0 0 0-2.5-.624l-2.73-.135a6.616 6.616 0 0 0-4.77 1.706 6.624 6.624 0 0 0-2.16 4.575l-1.41 28.553v.357l-.54-.687-40.32-51.935a7.98 7.98 0 0 0-13.99 3.977c-.3 2.036.19 4.11 1.38 5.788l29.04 37.415c-.78.113-1.55.249-2.32.411l-29.04-37.42a7.995 7.995 0 0 0-5.31-3.025 7.973 7.973 0 0 0-5.89 1.613 8.018 8.018 0 0 0-3.03 5.307c-.26 2.1.32 4.219 1.62 5.891l26.74 34.472-1 .806c-.77.631-1.51 1.291-2.21 1.98l-25.43-32.784a7.876 7.876 0 0 0-2.34-2.077 7.98 7.98 0 0 0-10.96 2.968 8.058 8.058 0 0 0-.98 2.979 8.047 8.047 0 0 0 .25 3.126 7.968 7.968 0 0 0 1.43 2.791l28.95 37.295c-.14.39-.26.785-.38 1.18l-25.43-32.757a7.985 7.985 0 0 0-4.01-2.75 7.997 7.997 0 0 0-4.87.091 7.98 7.98 0 0 0-3.9 2.899 8.01 8.01 0 0 0-1.5 4.629v.032Z"/>
  <path fill="#A85D23" d="m1336.88 415.469-66.7 33.979 8.04 11.648 58.66-45.627Z"/>
  <path fill="#395DA3" d="M1486.03 453.776s73.03-2.213 80.06-19.189c7.03-16.976 81.18-28.412 70.87-59.779-10.31-31.366-42.43-31.377-76.01-16.976-33.58 14.401-70.87 50.923-78.99 49.078-8.11-1.844 4.07 46.866 4.07 46.866Z"/>
  <path fill="#2B4271" d="m1535.26 448.55-.16-.13c6.76-.671 15.64-3.127 26.96-9.126 0 0 2.7-1.347 7.91-9.446 5.2-8.098 29.49-12.34 43.19-22.18 13.69-9.841 27.19-10.82 24.29-32.01 0 0-6.75-22.559-23.33-23.528 0 0-22.56 54.959-57.85 55.538 0 0-10.22 27.958-43.57 21.785 3.18 3.279 2.12 6.654 2.12 6.654-3.28 9.062-10.22 5.497-10.22 5.497-1.08 6.459-9.84 11.571-9.84 11.571 11.18-.189 40.5-4.625 40.5-4.625Z"/>
  <path stroke="#000" stroke-miterlimit="10" stroke-width="2.31" d="M1299.69 680.054s-6.24 32.508 25.82 54.32"/>
  <path fill="#D6802B" d="m1309.88 670.002.79-.389-.35-.087c-.15.173-.3.33-.44.476Z"/>
  <path fill="#A85D23" d="m1342.55 649.742 19.96 73.206 13.02-5.539-32.98-67.667Z"/>
  <path stroke="#000" stroke-miterlimit="10" stroke-width="2.31" d="M1349.55 668.033s-19.15 19.594-39.18 8.461"/>
  <path fill="#C84348" d="m1461.33 506.895-11.5 78.351-109.19 60.136 36.93 77.924 170.07-96.95-24.25-129.55-62.06 10.089Z"/>
  <path fill="#D6802B" d="m1311.49 387.267.54.687v-.357a9.713 9.713 0 0 0-.54-.33Zm189.72 48.413c0 2.296.91 4.497 2.53 6.121a8.66 8.66 0 0 0 6.12 2.535 9.033 9.033 0 0 0 2.17-.271 8.699 8.699 0 0 0 5.04-3.407 8.676 8.676 0 0 0 1.55-5.883 8.65 8.65 0 0 0-8.33-7.778h-.44a8.682 8.682 0 0 0-6.11 2.543 8.71 8.71 0 0 0-2.55 6.113l.02.027Z"/>
  <path fill="#C84348" d="m1421.25 705.999 160.78-24.609-57.91-205.136-.63-2.229-81.15 3.192-.01.086-21.08 228.696Z"/>
  <path fill="#C84348" d="m1272.86 464.276 129.08 147.165 122.05-49.739-39.91-81.861-60.76 27.217-.72.324-.41-.487-80.4-94.429-68.93 51.81Z"/>
  <path fill="#962B35" d="m1442.2 477.471 74.81 2.164s3.68-1.574 6.98-3.203l-.63-2.228-81.14 3.191-.02.076Zm-29.52 50.328 8.77-2.169 1.87-18.572-.72.324-.41-.487-9.51 20.904Z"/>
  <path fill="#962B35" d="m1296.51 448.328 87.9 113.634 130.16 3.933-112.64 45.546-129.08-147.165 24.26-16.575-.6.627Zm247.89 101.375c.6 3.636-29.58 131.341-122.42 156.718l160.96-24.712-38.54-132.006Z"/>
  <path fill="#D6802B" d="m1540.78 1095.97 28.94 55.41-21.01 8.06-18.25-21.86 1.34 32.75-100.92-10.67 61.55-18.09-.17-37.78 48.52-7.82Z"/>
  <path fill="#030303" d="m1581.34 676.77-17.63 460.12-89.42 1.28 2.77-441.265 104.28-20.135Z"/>
  <path fill="#D6802B" d="m1502.13 1078.4 51.96 34.75-14.56 17.14-26.5-10.43 16.88 28.09-93.67 39.05 45.33-45.39-18.27-33.08 38.83-30.13Z"/>
  <path fill="#A85D23" d="m1520.14 1090.22-50.92 30.56 12.35 20.83 49.37-44.25-10.8-7.14Z"/>
  <path fill="#030303" d="M1576.75 676.77 1438 899.84l113.82 164.3-88.18 68.56s-142.47-202.138-145.15-197.685c-2.67 4.452 107.02-235.735 107.02-235.735l151.24-22.51Z"/>
  <path stroke="#fff" stroke-miterlimit="10" stroke-width="2.31" d="m1519.95 1091.08 33.03-26.31-72.74-105.005m81.88-257.304L1442.8 891.244"/>
  <path fill="#A85D23" d="M1512.78 422.291c.13-.179.2-.298.22-.33l-.22.33Zm-10.6 16.711a20.202 20.202 0 0 1 2.62 3.722 8.613 8.613 0 0 0 5.08 1.623 9.002 9.002 0 0 0 2.16-.271c-1.65-2.781-4.6-9.316-1.73-17.068h-.44a8.6 8.6 0 0 0-5.41 1.888c.14 2.18-.2 5.599-2.28 10.106Z"/>
  <path fill="#962B35" d="m1431.45 599.609-9.46 97.572-44.42 26.125 15.89-106.726 8.47-5.139 29.52-12.216v.384Z"/>
  <path fill="#C84348" d="M1482.92 341.073c13.2 0 23.9-10.701 23.9-23.901s-10.7-23.901-23.9-23.901-23.9 10.701-23.9 23.901 10.7 23.901 23.9 23.901Z"/>
  <path fill="#D6802B" d="M1480.81 462.096c14.12 0 25.57-11.446 25.57-25.567 0-14.12-11.45-25.567-25.57-25.567-14.12 0-25.57 11.447-25.57 25.567 0 14.121 11.45 25.567 25.57 25.567Z"/>
  <path fill="#395DA3" d="M1455.21 413.862c0 2.729.77 5.403 2.23 7.709a14.395 14.395 0 0 0 6.02 5.313 14.388 14.388 0 0 0 15.29-1.91 11.818 11.818 0 0 0 19.96 2.585c1.7-2.101 2.62-4.72 2.63-7.421 0-.618-.05-1.235-.15-1.845a16.572 16.572 0 0 0 7.66-4.855 16.626 16.626 0 0 0 3.06-17.168 16.644 16.644 0 0 0-5.51-7.198 16.616 16.616 0 0 0-8.47-3.233c-3.07-.271-6.15.316-8.9 1.696a16.58 16.58 0 0 0-6.69 6.118 16.58 16.58 0 0 0-2.48 8.719c0 .497.03.99.07 1.477a14.387 14.387 0 0 0-15.74-3.325 14.466 14.466 0 0 0-6.53 5.296 14.397 14.397 0 0 0-2.45 8.042Z"/>
  <path fill="#D6802B" d="m1527.61 206.995-84.68 55.272 5.88-48.218 17.64 10.587s-2.35-37.636 1.18-36.462c3.52 1.174 27.05 23.522 27.05 23.522L1505.26 187s21.17 21.169 22.35 19.995Z"/>
  <path fill="#8964FE" d="M710.312 554.762H359.635v553.998h350.677V554.762Z"/>
  <path fill="#000" d="M359.061 1108.76 775 841.188 363.015 434 237.554 980.306l121.507 128.454Z"/>
  <path fill="#F6F4E7" d="m468.671 795.339-25.243 1.102 5.053-36.863 1.425-10.39 7.32-.493 3.011-.206.053.296.725 4.011 7.656 42.543Z"/>
  <path fill="#000" d="m461.015 752.796-12.534 6.782 1.425-10.39 7.32-.493 3.064.09.725 4.011Z"/>
  <path fill="#F6F4E7" d="M455.81 749.822c11.586 0 20.978-9.716 20.978-21.702 0-11.986-9.392-21.702-20.978-21.702-11.585 0-20.977 9.716-20.977 21.702 0 11.986 9.392 21.702 20.977 21.702Z"/>
  <path fill="#FD6232" d="m433.33 734.692 63.288-20.273s-16.814-36.38-42.393-27.403c-32.568 11.442-20.895 47.676-20.895 47.676Zm179.818-132.713 9.207-54.357-11.843 25.173 1.299-28.847-10.263 27.61-1.678-25.426-5.705 26.623-3.881-26.537-2.228 31.654-13.949-11.492 17.947 26.718 1.09 10.653 20.004-1.772Z"/>
  <path fill="#FCC75F" d="M525.061 883.485 546.549 1111l-177.907-1.83 4.475-305.614 141.934-26.059.034.337 48.472-41.869 15.166-136.924 38.749-.518 6.659 188.388-99.07 96.574Z"/>
  <path fill="#8964FE" d="m495.256 700.682-67.348 34.91a5.157 5.157 0 0 1-1.993.567 5.1 5.1 0 0 1-2.05-.266 5.245 5.245 0 0 1-1.796-1.057 5.463 5.463 0 0 1-1.267-1.689l-1.878-3.88a5.636 5.636 0 0 1-.293-4.181 5.524 5.524 0 0 1 1.021-1.858 5.312 5.312 0 0 1 1.631-1.312l5.657-2.934c-1.946-1.509-5.351-5.162-3.59-11.759 2.432-9.057 7.296-9.56-6.809-13.585-13.906-3.97 30.802-43.143 68.418-4.725l3.673-1.902a5.135 5.135 0 0 1 4.041-.304c.66.227 1.271.586 1.796 1.057a5.465 5.465 0 0 1 1.269 1.687l1.882 3.885a5.65 5.65 0 0 1 .289 4.179 5.539 5.539 0 0 1-1.022 1.857 5.32 5.32 0 0 1-1.631 1.31Zm-29.232 103.85 42.315 131.374-79.211 21.465 18.317-156.557h-11.294c-2.105 0-4.124-.866-5.613-2.406a8.359 8.359 0 0 1-2.325-5.806v-24.837c0-2.178.837-4.266 2.325-5.806 1.489-1.54 3.508-2.406 5.613-2.406h46.867c2.105 0 4.124.866 5.613 2.406a8.355 8.355 0 0 1 2.325 5.806v24.837a8.355 8.355 0 0 1-2.325 5.806c-1.489 1.54-3.508 2.406-5.613 2.406h-4.29l53.468 53.034-26.639 17.611-39.533-66.927Z"/>
  <path fill="#FCC75F" d="m664.578 1055.41-4.071 3.51-258.611-321.048-5.116-6.355-115.636-143.556 4.075-3.512 115.69 143.621.53.659 263.139 326.681Z"/>
  <path fill="#FD6232" d="m267.255 627.015 68.507-57.638c32.955-27.726 75.206-40.773 117.459-36.272 42.254 4.502 81.048 26.184 107.848 60.277L244.052 860.103c-26.801-34.093-39.413-77.803-35.061-121.516 4.351-43.712 25.31-83.846 58.264-111.572Z"/>
  <path fill="#000" d="m372.436 932.313 23.92 82.857s14.382 28.95 45.233 21.52c30.851-7.44 97.276-24.22 97.276-24.22l-172.907 57.54-7.296-194.224 13.774 56.527Z"/>
  <path fill="#FD6232" d="M561.587 966.806c2.257 8.8 4.266 17.666 6.187 26.562l11.644-2.938 55.763-29.914-35.019 7.764 29.669-23.77-35.019 17.46 26.712-27.171-32.058 24.741 16.051-29.592-29.085 27.171 7.125-22.798-21.97 32.485Z"/>
  <path fill="#FCC75F" d="M376.658 792.642c19.353-4.277 38.711 7.271 45.126 26.92l51.177 139.248 93.87-12.076 15.564 53.836-138.097 35.45c-10.838 2.78-22.296 1.11-31.974-4.65-9.679-5.76-16.826-15.18-19.946-26.27l-45.233-160.51c-6.479-23.041 7.14-46.997 29.513-51.948Z"/>
  <path fill="#000" d="M440.047 869.361c-.647 1.897 32.913 89.449 32.913 89.449l60.179-7.668-53.37-5.414-39.722-76.367Z"/>
  <path stroke="#fff" stroke-miterlimit="10" stroke-width="4" d="m266.25 951.766 53.988-82.018-16.537 134.852-37.451-52.834Zm330.98-77.741 97.761-42.769v104.157l-53.015 13.082-5.35-45.286-46.692 9.561 7.296-38.745Zm38.423-242.026 44.747-34.216 16.537 48.305-59.338 40.757 1.945-25.662 28.21-16.102-32.101-13.082Z"/>
  <path stroke="#FD6232" stroke-miterlimit="10" stroke-width="4" d="M678.454 750.245s-84.629 61.387-17.996 144.41c66.634 83.024 18.969 189.195-38.423 181.645M471.014 484.821S317.32 384.689 310.997 509.476c-6.323 124.787-18.969-23.649-81.225 6.541-62.256 30.191 34.046 88.056-6.323 117.24"/>
  <path fill="#000" d="M522.084 535.138c4.567 0 8.269-3.83 8.269-8.554s-3.702-8.554-8.269-8.554c-4.566 0-8.268 3.83-8.268 8.554s3.702 8.554 8.268 8.554Zm-264.102 40.757c4.029 0 7.295-3.379 7.295-7.548 0-4.168-3.266-7.547-7.295-7.547-4.03 0-7.296 3.379-7.296 7.547 0 4.169 3.266 7.548 7.296 7.548Zm-25.778 331.088c3.224 0 5.837-2.703 5.837-6.038 0-3.335-2.613-6.038-5.837-6.038-3.223 0-5.836 2.703-5.836 6.038 0 3.335 2.613 6.038 5.836 6.038ZM272.573 1068c1.88 0 3.405-1.58 3.405-3.52 0-1.95-1.525-3.53-3.405-3.53s-3.405 1.58-3.405 3.53c0 1.94 1.525 3.52 3.405 3.52Zm181.905-565.065c2.418 0 4.377-2.028 4.377-4.529s-1.959-4.528-4.377-4.528c-2.418 0-4.377 2.027-4.377 4.528 0 2.501 1.959 4.529 4.377 4.529Zm193.578 30.19c4.567 0 8.268-3.829 8.268-8.554 0-4.724-3.701-8.554-8.268-8.554s-8.268 3.83-8.268 8.554c0 4.725 3.701 8.554 8.268 8.554Zm-66.634 497.135-10.214 64.41h76.847l-66.633-64.41Z"/>
  <path fill="#FD6232" d="m580.449 1028.25-10.214 64.4h76.848l-66.634-64.4Z"/>
  <path fill="#000" d="m401.896 737.872-5.117-6.356 4.13-3.446.53.659.457 9.143Z"/>
  <path stroke="#fff" stroke-miterlimit="10" stroke-width="4" d="M298.108 813.644c-68.093-99.804-1.26-211.695-1.26-211.695s96.104-65.553 203.593 42.629m-99.221 83.024L296.163 601.808"/>
  <path fill="#fff" d="M230.533 250.773c0 3.972-.032 7.943-.097 11.915a243.34 243.34 0 0 1-.489 11.914 206.549 206.549 0 0 1-1.025 11.816 164.409 164.409 0 0 1-1.807 11.816l-.781 3.907c.098.227.26.602.488 1.123.261.488.521 1.025.782 1.611.26.553.488 1.074.683 1.563.195.488.293.813.293.976 0 .423-.179.749-.537.977-.326.227-.716.39-1.172.488a6.83 6.83 0 0 1-1.416.244 18.19 18.19 0 0 1-1.172.049c-.358 0-.7-.016-1.025-.049-.326 0-.635-.049-.928-.146-.749-.261-1.253-.554-1.514-.879-.26-.326-.569-.814-.927-1.465a71.444 71.444 0 0 1-3.614-8.057 111.57 111.57 0 0 1-2.685-8.496 169.254 169.254 0 0 1-2.1-8.691 469.553 469.553 0 0 1-1.758-8.741 253.82 253.82 0 0 1-5.566 31.934l.977 1.953c.39.684.586 1.367.586 2.051 0 .456-.147.814-.44 1.074-.293.261-.667.44-1.123.537a6.05 6.05 0 0 1-1.367.147 7.116 7.116 0 0 1-1.172 0 1.214 1.214 0 0 1-.293.146 1.259 1.259 0 0 1-.391.049c-1.139 0-2.05-.342-2.734-1.025-.651-.684-1.172-1.514-1.563-2.491a91.485 91.485 0 0 1-3.027-9.423 146.928 146.928 0 0 1-2.295-10.108 231.028 231.028 0 0 1-1.709-10.205 327.607 327.607 0 0 1-1.172-9.912c-.455-3.874-.895-7.731-1.318-11.572a106.533 106.533 0 0 1-.635-11.67c0-.684.098-1.205.293-1.563.196-.39.684-.586 1.465-.586 1.204 0 2.132.196 2.783.586.684.358 1.188.863 1.514 1.514.358.618.586 1.351.684 2.197.13.847.227 1.758.292 2.735a528.757 528.757 0 0 0 2.393 21.582 190.196 190.196 0 0 0 4.053 21.289c.879-4.525 1.546-9.05 2.002-13.575.488-4.557.96-9.114 1.416-13.671.097-1.205.163-2.426.195-3.662.033-1.237.081-2.474.147-3.711.097-1.27.211-2.523.341-3.76.163-1.237.424-2.442.782-3.613.293-1.042.765-1.84 1.416-2.393.651-.553 1.546-.83 2.685-.83 1.107 0 1.97.244 2.588.732a4.714 4.714 0 0 1 1.416 1.856c.358.716.602 1.53.733 2.441.13.912.244 1.774.341 2.588a223.074 223.074 0 0 0 3.028 17.481 230.077 230.077 0 0 0 4.492 17.187 157.98 157.98 0 0 0 1.221-15.088c.162-5.013.244-10.075.244-15.185 0-2.898-.033-5.811-.098-8.741a81.264 81.264 0 0 0-.586-8.838 4.45 4.45 0 0 0-.098-.976 4.523 4.523 0 0 1-.097-.977c0-.683.211-1.172.635-1.464.423-.326.96-.489 1.611-.489.423 0 .879.049 1.367.147a7.843 7.843 0 0 1 1.514.342c.521.13.993.309 1.416.537.455.227.814.504 1.074.83.13.162.228.521.293 1.074.098.553.179 1.221.244 2.002.065.781.114 1.611.147 2.49.032.879.048 1.725.048 2.539.033.814.049 1.546.049 2.197v1.416Zm30.377 48.291c0 .977-.277 1.986-.83 3.028a11.661 11.661 0 0 1-2.051 2.881 11.182 11.182 0 0 1-2.929 2.099c-1.075.554-2.149.83-3.223.83-1.53 0-2.848-.293-3.955-.879a9.836 9.836 0 0 1-2.881-2.441 14.306 14.306 0 0 1-2.002-3.516 28.246 28.246 0 0 1-1.172-4.004 37.858 37.858 0 0 1-.635-4.15 55.551 55.551 0 0 1-.146-3.808c0-.977.049-2.133.146-3.467a51.37 51.37 0 0 1 .586-4.151 32.98 32.98 0 0 1 1.172-4.248c.489-1.399 1.091-2.653 1.807-3.759.749-1.107 1.627-2.002 2.637-2.686 1.041-.684 2.229-1.025 3.564-1.025 1.042 0 1.969.211 2.783.634a6.016 6.016 0 0 1 2.1 1.709 6.853 6.853 0 0 1 1.318 2.393c.326.911.489 1.855.489 2.832 0 1.269-.293 2.653-.879 4.15a22.286 22.286 0 0 1-2.295 4.346 22.18 22.18 0 0 1-3.125 3.809c-1.14 1.106-2.279 1.953-3.418 2.539.065.586.195 1.448.39 2.588.196 1.106.456 2.213.782 3.32.358 1.107.765 2.067 1.22 2.881.489.814 1.058 1.22 1.709 1.22.326 0 .602-.097.83-.293.261-.195.489-.455.684-.781.195-.325.358-.683.488-1.074.163-.391.309-.765.44-1.123l.293-.684c.065-.097.097-.162.097-.195a.556.556 0 0 0 .098-.146c.228-.424.439-.814.635-1.172.228-.358.537-.668.927-.928h-.048c.13-.13.26-.195.39-.195a2.23 2.23 0 0 1 .44-.049c.358 0 .748.114 1.172.342.423.227.813.52 1.171.879.359.325.651.699.879 1.123.228.39.342.781.342 1.171Zm-9.668-21.533c0-.325-.016-.667-.049-1.025a2.585 2.585 0 0 0-.244-.928c-.456.554-.862 1.221-1.22 2.002a17.168 17.168 0 0 0-.831 2.393 31.235 31.235 0 0 0-.586 2.49c-.13.846-.227 1.627-.292 2.344a18.286 18.286 0 0 0 2.246-3.418c.651-1.302.976-2.588.976-3.858Zm39.215 29.834c0 .651-.163 1.091-.488 1.319-.326.26-.781.39-1.367.39-1.53 0-2.637-.407-3.321-1.22-.651-.814-1.139-1.889-1.465-3.223l-.293-1.367a26.708 26.708 0 0 1-.244-1.416c-.065-.424-.13-.716-.195-.879-.065-.163-.13-.472-.195-.928a27.867 27.867 0 0 1-1.465 2.979 16.937 16.937 0 0 1-1.953 2.832 10.398 10.398 0 0 1-2.539 2.099 5.718 5.718 0 0 1-3.028.83c-1.172 0-2.148-.276-2.929-.83a6.525 6.525 0 0 1-1.856-2.148 11.523 11.523 0 0 1-.928-2.881 19.42 19.42 0 0 1-.244-2.979c0-2.213.212-4.606.635-7.177a65.47 65.47 0 0 1 1.856-7.764 65.344 65.344 0 0 1 2.734-7.471c1.042-2.409 2.181-4.508 3.418-6.299v.049l.293-.439c.358-.488.765-1.009 1.221-1.563.488-.586 1.057-.879 1.708-.879.619 0 1.156.277 1.612.83a4.84 4.84 0 0 1 .976 1.661c.847.162 1.53.374 2.051.634.521.228.928.521 1.221.879.293.358.488.782.586 1.27.097.456.146.96.146 1.514v.732c0 .26-.016.521-.049.781-.032.261-.048.57-.048.928v.976c0 .326.048.749.146 1.27.13.521.261 1.058.391 1.611l.342 1.807c.162.944.293 2.018.39 3.223.13 1.204.277 2.408.44 3.613.13 1.237.26 2.441.39 3.613.13 1.14.261 2.197.391 3.174l1.172 7.227.146.83c.065.423.13.813.196 1.172.097.358.146.765.146 1.22Zm-11.182-28.076c0-.065-.016-.163-.048-.293l-.098-.488a40.6 40.6 0 0 0-2.002 5.224 63.98 63.98 0 0 0-1.416 5.713 69.268 69.268 0 0 0-.83 5.811 64.768 64.768 0 0 0-.244 5.469v.439c0 .13.016.26.049.391v.049c.781-1.205 1.448-2.784 2.002-4.737a59.582 59.582 0 0 0 1.464-6.201c.391-2.181.668-4.281.83-6.299.196-2.051.293-3.743.293-5.078Zm31.061 27.49c0 .358-.081.668-.244.928a1.703 1.703 0 0 1-.635.537c-.228.13-.488.212-.781.244a3.22 3.22 0 0 1-.781.098c-.359 0-.782-.049-1.27-.147a7.047 7.047 0 0 1-1.367-.341 7.574 7.574 0 0 1-1.27-.586 2.82 2.82 0 0 1-.83-.928c-.195-.326-.374-.928-.537-1.807a54.524 54.524 0 0 1-.342-3.125 120.523 120.523 0 0 1-.244-3.808c-.065-1.367-.13-2.67-.195-3.906a478.142 478.142 0 0 0-.098-3.321v-2.246c0-2.279.033-4.476.098-6.592.098-2.148.195-4.345.293-6.591-.163 0-.326.016-.488.048a2.458 2.458 0 0 1-.489.049 17.495 17.495 0 0 1-2.636.195c-.554 0-1.042-.097-1.465-.292-.423-.196-.635-.635-.635-1.319 0-.814.179-1.465.537-1.953a3.534 3.534 0 0 1 1.367-1.123 5.624 5.624 0 0 1 1.807-.586c.651-.13 1.286-.228 1.904-.293h.195c.033-.032.098-.049.196-.049.032-.39.065-.862.097-1.416.033-.586.066-1.22.098-1.904.033-1.074.081-2.214.147-3.418.065-1.237.13-2.409.195-3.516.065-1.139.146-2.132.244-2.978.098-.879.195-1.498.293-1.856.163-.423.342-.765.537-1.025.228-.26.635-.391 1.221-.391 1.302 0 2.311.424 3.027 1.27.716.846 1.074 1.888 1.074 3.125 0 1.432-.048 2.864-.146 4.297l-.195 4.345-.147 2.491a21.241 21.241 0 0 0 2.441-.44 58.783 58.783 0 0 1 2.344-.439c.814-.13 1.595-.196 2.344-.196.651 0 1.156.179 1.514.538.358.325.537.813.537 1.464a5.84 5.84 0 0 1-.391 2.1 2.923 2.923 0 0 1-1.367 1.563h.049c-.13.065-.521.162-1.172.292-.651.098-1.4.196-2.246.293l-2.442.293c-.781.098-1.367.163-1.757.196h-.049a294.965 294.965 0 0 0-.196 10.791c0 2.506.066 5.176.196 8.008a98.36 98.36 0 0 0 .781 8.007l.391 2.198c.13.553.244 1.106.341 1.66.098.521.147 1.041.147 1.562Zm38.482-1.416c0 .651-.211 1.123-.634 1.416-.424.293-.944.44-1.563.44-.391 0-.797-.033-1.221-.098a68.07 68.07 0 0 1-1.22-.293c-.684-.195-1.221-.439-1.612-.732a3.337 3.337 0 0 1-.83-.977 4.124 4.124 0 0 1-.39-1.269c-.033-.456-.065-.961-.098-1.514a1.8 1.8 0 0 0-.049-.44v-.39c-.097-1.856-.195-3.76-.293-5.713a171.785 171.785 0 0 1-.097-5.713v-2.832l.097-2.832c.033-.944.049-1.872.049-2.783.033-.944.049-1.888.049-2.832 0-.196-.016-.375-.049-.537 0-.196-.016-.391-.049-.586a23.912 23.912 0 0 0-2.246 4.15 49.708 49.708 0 0 0-1.66 4.688 62.11 62.11 0 0 0-1.27 4.834 100.453 100.453 0 0 0-.83 4.589l-.146 1.026a422.707 422.707 0 0 0-.488 3.515 25.495 25.495 0 0 0-.245 3.516c0 .488.082 1.025.245 1.611.065.261.114.521.146.782.065.228.098.521.098.879 0 .781-.196 1.302-.586 1.562-.391.293-.912.44-1.563.44-.39 0-.83-.033-1.318-.098a6.961 6.961 0 0 1-1.367-.342 5.8 5.8 0 0 1-1.221-.537 2.676 2.676 0 0 1-.928-.879c-.195-.423-.39-1.546-.586-3.369a246.453 246.453 0 0 1-.488-6.787c-.13-2.702-.26-5.729-.391-9.082-.13-3.386-.26-6.852-.39-10.401-.098-3.548-.195-7.063-.293-10.546-.065-3.484-.13-6.69-.195-9.62-.033-2.929-.066-5.468-.098-7.617a351.086 351.086 0 0 1-.049-4.59c0-.651.081-1.237.244-1.757.196-.554.716-.831 1.563-.831.879 0 1.709.212 2.49.635.781.391 1.351 1.009 1.709 1.856.065.13.13.667.195 1.611.065.911.13 2.1.196 3.564.065 1.433.13 3.093.195 4.981.065 1.855.13 3.792.195 5.81l.195 6.006c.066 2.019.131 3.907.196 5.664l.244 7.227a29.942 29.942 0 0 1 1.465-3.174 18.029 18.029 0 0 1 2.002-3.027 11.148 11.148 0 0 1 2.588-2.246 6.142 6.142 0 0 1 3.222-.879c1.433 0 2.556.374 3.369 1.123.814.749 1.416 1.676 1.807 2.783.423 1.107.684 2.295.781 3.564.098 1.27.147 2.426.147 3.467 0 .651-.016 1.286-.049 1.905a34.8 34.8 0 0 1-.049 1.855l-.098 1.953v1.904c0 2.247.049 4.558.147 6.934a54.58 54.58 0 0 0 .732 6.934l.098.683c.065.196.114.423.147.684.032.26.048.504.048.732Zm29.596-6.299c0 .977-.277 1.986-.83 3.028a11.661 11.661 0 0 1-2.051 2.881 11.182 11.182 0 0 1-2.929 2.099c-1.075.554-2.149.83-3.223.83-1.53 0-2.848-.293-3.955-.879a9.836 9.836 0 0 1-2.881-2.441 14.306 14.306 0 0 1-2.002-3.516 28.246 28.246 0 0 1-1.172-4.004 37.858 37.858 0 0 1-.635-4.15 55.551 55.551 0 0 1-.146-3.808c0-.977.049-2.133.146-3.467a51.37 51.37 0 0 1 .586-4.151 32.98 32.98 0 0 1 1.172-4.248c.488-1.399 1.091-2.653 1.807-3.759.748-1.107 1.627-2.002 2.637-2.686 1.041-.684 2.229-1.025 3.564-1.025 1.042 0 1.969.211 2.783.634a6.016 6.016 0 0 1 2.1 1.709 6.853 6.853 0 0 1 1.318 2.393c.326.911.488 1.855.488 2.832 0 1.269-.293 2.653-.879 4.15a22.227 22.227 0 0 1-2.294 4.346 22.227 22.227 0 0 1-3.125 3.809c-1.14 1.106-2.279 1.953-3.418 2.539.065.586.195 1.448.39 2.588.196 1.106.456 2.213.781 3.32.359 1.107.765 2.067 1.221 2.881.488.814 1.058 1.22 1.709 1.22.326 0 .602-.097.83-.293.261-.195.489-.455.684-.781.195-.325.358-.683.488-1.074.163-.391.309-.765.44-1.123l.293-.684c.065-.097.097-.162.097-.195a.556.556 0 0 0 .098-.146c.228-.424.439-.814.635-1.172a3.14 3.14 0 0 1 .927-.928h-.048c.13-.13.26-.195.39-.195a2.23 2.23 0 0 1 .44-.049c.358 0 .748.114 1.171.342.424.227.814.52 1.172.879.358.325.651.699.879 1.123.228.39.342.781.342 1.171Zm-9.668-21.533c0-.325-.016-.667-.049-1.025a2.585 2.585 0 0 0-.244-.928c-.456.554-.863 1.221-1.221 2.002a17.297 17.297 0 0 0-.83 2.393 30.806 30.806 0 0 0-.586 2.49 39.09 39.09 0 0 0-.293 2.344 18.29 18.29 0 0 0 2.247-3.418c.651-1.302.976-2.588.976-3.858Zm23.004 31.25a7.486 7.486 0 0 1-1.611-.195 6.14 6.14 0 0 1-1.612-.635 5.063 5.063 0 0 1-1.269-1.074c-.326-.456-.488-.993-.488-1.611 0-.912.032-1.807.097-2.686.098-.911.195-1.807.293-2.685v.048l.293-3.271c.098-1.172.179-2.458.244-3.858.065-1.399.114-2.815.147-4.248.065-1.464.114-2.897.146-4.296.033-1.4.049-2.686.049-3.858 0-.683-.016-1.367-.049-2.051v-2.148a39.894 39.894 0 0 1-.049-2.051v-2.148c0-.684.082-1.237.245-1.66.195-.456.716-.684 1.562-.684.749 0 1.53.195 2.344.586.846.39 1.432.944 1.758 1.66h-.049c.163.358.276.944.342 1.758.097.781.162 1.481.195 2.099a69.19 69.19 0 0 1 1.855-2.685 22.099 22.099 0 0 1 2.295-2.588 12.307 12.307 0 0 1 2.588-2.002 5.81 5.81 0 0 1 2.93-.781c1.367 0 2.409.342 3.125 1.025.716.684 1.237 1.546 1.562 2.588.326 1.009.505 2.1.537 3.272.033 1.139.049 2.181.049 3.125v.39c0 .391-.016.781-.049 1.172 0 .358-.065.7-.195 1.025-.097.293-.293.538-.586.733-.26.195-.635.293-1.123.293a7.675 7.675 0 0 1-1.66-.195 7.44 7.44 0 0 1-1.66-.684 5.067 5.067 0 0 1-1.27-1.074 2.72 2.72 0 0 1-.586-1.563v-.781c0-.26.017-.521.049-.781v-.586c.033-.261.049-.505.049-.733-1.042 1.042-1.969 2.328-2.783 3.858a47.952 47.952 0 0 0-2.149 4.883 60.577 60.577 0 0 0-1.611 5.224 164.11 164.11 0 0 0-1.172 4.688v.146a47.336 47.336 0 0 0-.195 2.979c-.033.976-.065 1.985-.098 3.027-.032 1.172-.081 2.36-.146 3.564a40.872 40.872 0 0 1-.244 3.516c-.065.619-.261 1.091-.586 1.416-.293.358-.798.537-1.514.537Zm83.02-27.636c0 .683-.245 1.399-.733 2.148-.488.749-1.025 1.302-1.611 1.66-.163.098-.44.195-.83.293-.391.098-.814.195-1.27.293a17.72 17.72 0 0 0-1.269.244c-.391.065-.7.114-.928.147l1.172 7.226c.358 2.246.618 4.509.781 6.787a34.131 34.131 0 0 0 1.27 6.69c.065.195.13.374.195.537.065.163.098.374.098.635 0 .423-.131.748-.391.976a1.938 1.938 0 0 1-.879.489c-.326.13-.684.211-1.074.244-.391.032-.749.048-1.074.048h-.684c-1.009 0-1.79-.081-2.344-.244-.521-.162-.928-.439-1.22-.83-.293-.39-.489-.879-.586-1.465a223.08 223.08 0 0 1-.342-2.246 561.022 561.022 0 0 0-2.637-17.871c-2.018.261-4.053.505-6.103.733-2.019.228-4.053.439-6.104.634l-1.562 9.571c-.066.586-.163 1.383-.293 2.392a58.585 58.585 0 0 1-.391 3.125 34.327 34.327 0 0 1-.488 2.93c-.163.911-.358 1.579-.586 2.002-.196.391-.375.667-.537.83-.163.163-.472.244-.928.244a4.818 4.818 0 0 1-1.758-.342 4.723 4.723 0 0 1-1.514-.879 4.105 4.105 0 0 1-1.025-1.318 3.883 3.883 0 0 1-.391-1.758c0-.651.065-1.302.196-1.953.162-.651.293-1.302.39-1.953.358-2.148.684-4.281.977-6.396.293-2.149.618-4.281.976-6.397a10.318 10.318 0 0 1-.781-.146 9.948 9.948 0 0 1-.879-.342 2.607 2.607 0 0 1-.683-.488.937.937 0 0 1-.293-.684c0-.326.114-.619.342-.879.26-.293.553-.553.878-.781a6.168 6.168 0 0 1 1.075-.635c.358-.195.667-.342.927-.439a1043.41 1043.41 0 0 0 1.953-13.623 452.527 452.527 0 0 0 1.661-13.721c.13-1.237.244-2.49.341-3.76l.293-3.809c.131-1.269.277-2.522.44-3.759.195-1.237.456-2.474.781-3.711.293-1.172.781-2.116 1.465-2.832.684-.716 1.693-1.074 3.027-1.074.391 0 .765.032 1.123.097.391.065.733.195 1.026.391.846.423 1.725 1.579 2.636 3.467.912 1.888 1.823 4.183 2.735 6.884a122.95 122.95 0 0 1 2.588 8.692 267.57 267.57 0 0 1 2.295 9.082 309.171 309.171 0 0 1 1.757 7.959c.489 2.344.847 4.085 1.075 5.224a44.715 44.715 0 0 1 2.05-.244 14.594 14.594 0 0 1 2.051-.146c.326 0 .7.016 1.123.049.423.032.814.13 1.172.293.391.13.7.341.928.634.26.261.391.619.391 1.075Zm-15.332-.391a366.992 366.992 0 0 0-2.784-13.721 185.69 185.69 0 0 0-3.466-13.623 689.083 689.083 0 0 1-1.905 14.649 744.86 744.86 0 0 1-2.197 14.55c1.758-.26 3.483-.537 5.176-.83 1.725-.325 3.45-.667 5.176-1.025Zm29.009 14.551c0 1.562-.016 2.994-.049 4.297 0 1.302.033 2.734.098 4.296l.879-.634.537-.342c1.595-1.27 2.979-2.816 4.15-4.639a30.413 30.413 0 0 0 2.979-5.908 33.747 33.747 0 0 0 1.709-6.396c.391-2.214.586-4.314.586-6.299 0-.391-.016-.928-.049-1.612 0-.716-.065-1.416-.195-2.099-.13-.684-.326-1.27-.586-1.758-.261-.521-.635-.781-1.123-.781-.781 0-1.579.472-2.393 1.416-.814.944-1.579 2.067-2.295 3.369a48.32 48.32 0 0 0-1.855 3.955c-.554 1.302-.96 2.327-1.221 3.076 0 .033-.016.049-.049.049v.098a239.8 239.8 0 0 1-.634 1.464 7 7 0 0 0-.391 1.465c-.065.456-.114.977-.147 1.563a30.494 30.494 0 0 0-.048 1.758v.976c.032.293.048.57.048.83v1.026c.033.293.049.569.049.83Zm2.686 44.629c0 .716-.195 1.204-.586 1.464-.391.261-.912.391-1.563.391-.781 0-1.644-.13-2.588-.391-.944-.227-1.692-.667-2.246-1.318-.162-.228-.325-.895-.488-2.002-.13-1.107-.26-2.409-.391-3.906a165.93 165.93 0 0 1-.341-4.59 237.272 237.272 0 0 0-.293-4.15l-.196-2.588a373.82 373.82 0 0 1-.586-20.899c0-4.069.066-8.056.196-11.963.163-3.938.325-7.926.488-11.962l.195-5.127v-1.514a11.34 11.34 0 0 1 .196-1.514c.162-.423.358-.748.586-.976.26-.261.667-.391 1.22-.391 1.4 0 2.425.423 3.076 1.27.652.813 1.026 1.822 1.124 3.027 1.041-1.432 2.278-2.572 3.71-3.418 1.465-.846 3.142-1.27 5.03-1.27 1.595 0 2.929.358 4.004 1.075a8 8 0 0 1 2.636 2.783c.651 1.107 1.107 2.36 1.368 3.76.293 1.367.439 2.718.439 4.052a44.1 44.1 0 0 1-.684 7.715 37.12 37.12 0 0 1-2.148 7.422 34.858 34.858 0 0 1-3.613 6.787 28.48 28.48 0 0 1-5.176 5.664c-.26.228-.57.472-.928.733-.358.26-.732.504-1.123.732-.39.228-.797.423-1.221.586-.39.163-.748.244-1.074.244-.358 0-.667-.081-.927-.244a2.947 2.947 0 0 1-.684-.586c.065 2.246.146 4.574.244 6.982.13 2.409.277 4.818.44 7.227.162 2.441.358 4.85.585 7.227.261 2.376.57 4.671.928 6.884.098.424.179.863.244 1.319.098.488.147.976.147 1.465Zm31.158-44.629c0 1.562-.016 2.994-.049 4.297 0 1.302.033 2.734.098 4.296l.879-.634.537-.342c1.595-1.27 2.978-2.816 4.15-4.639a30.413 30.413 0 0 0 2.979-5.908 33.747 33.747 0 0 0 1.709-6.396c.39-2.214.586-4.314.586-6.299 0-.391-.017-.928-.049-1.612 0-.716-.065-1.416-.195-2.099-.131-.684-.326-1.27-.586-1.758-.261-.521-.635-.781-1.123-.781-.782 0-1.579.472-2.393 1.416-.814.944-1.579 2.067-2.295 3.369a47.99 47.99 0 0 0-1.855 3.955c-.554 1.302-.961 2.327-1.221 3.076 0 .033-.016.049-.049.049v.098c-.195.455-.407.944-.635 1.464a7.056 7.056 0 0 0-.39 1.465c-.065.456-.114.977-.147 1.563a30.462 30.462 0 0 0-.049 1.758v.976c.033.293.049.57.049.83v1.026c.033.293.049.569.049.83Zm2.686 44.629c0 .716-.196 1.204-.586 1.464-.391.261-.912.391-1.563.391-.781 0-1.644-.13-2.588-.391-.944-.227-1.692-.667-2.246-1.318-.163-.228-.325-.895-.488-2.002a131.51 131.51 0 0 1-.391-3.906c-.13-1.465-.244-2.995-.342-4.59a219.213 219.213 0 0 0-.293-4.15l-.195-2.588a373.82 373.82 0 0 1-.586-20.899c0-4.069.065-8.056.196-11.963.162-3.938.325-7.926.488-11.962l.195-5.127v-1.514c.033-.521.098-1.025.195-1.514.163-.423.359-.748.586-.976.261-.261.668-.391 1.221-.391 1.4 0 2.425.423 3.076 1.27.651.813 1.026 1.822 1.123 3.027 1.042-1.432 2.279-2.572 3.711-3.418 1.465-.846 3.142-1.27 5.03-1.27 1.595 0 2.929.358 4.003 1.075a7.994 7.994 0 0 1 2.637 2.783c.651 1.107 1.107 2.36 1.367 3.76.293 1.367.44 2.718.44 4.052a44.1 44.1 0 0 1-.684 7.715 37.252 37.252 0 0 1-2.148 7.422 34.863 34.863 0 0 1-3.614 6.787 28.474 28.474 0 0 1-5.175 5.664c-.261.228-.57.472-.928.733-.358.26-.732.504-1.123.732a8.453 8.453 0 0 1-1.221.586c-.39.163-.748.244-1.074.244-.358 0-.667-.081-.928-.244a2.962 2.962 0 0 1-.683-.586c.065 2.246.146 4.574.244 6.982.13 2.409.277 4.818.439 7.227.163 2.441.358 4.85.586 7.227.261 2.376.57 4.671.928 6.884.098.424.179.863.244 1.319.098.488.147.976.147 1.465Zm36.822-30.518c0 .456-.114.83-.342 1.123a2.3 2.3 0 0 1-.879.684c-.325.195-.7.325-1.123.39a4.447 4.447 0 0 1-1.074.147c-1.139 0-2.132-.326-2.979-.977-.846-.651-1.578-1.497-2.197-2.539-.618-1.009-1.123-2.165-1.514-3.467a46.677 46.677 0 0 1-.976-3.955 45.087 45.087 0 0 1-.586-3.808c-.13-1.237-.228-2.295-.293-3.174a168.543 168.543 0 0 1-.635-9.229 299.02 299.02 0 0 1-.146-9.277c0-8.366.293-16.65.879-24.854v-.439a2.53 2.53 0 0 0 .048-.488c.033-.684.066-1.465.098-2.344.033-.911.081-1.807.147-2.686.065-.878.13-1.676.195-2.392.098-.749.211-1.27.342-1.563v.049c.13-.456.309-.797.537-1.025.228-.228.618-.342 1.172-.342 1.172 0 2.164.391 2.978 1.172.814.781 1.221 1.758 1.221 2.93 0 .26-.016.52-.049.781 0 .228-.016.456-.049.683l-.097.684v.537c-.098 1.27-.179 2.539-.245 3.809a148.65 148.65 0 0 1-.146 3.759c-.163 2.8-.293 5.599-.391 8.399a357.616 357.616 0 0 0-.097 8.398c0 1.205.016 2.784.048 4.737.033 1.953.098 4.085.196 6.396.097 2.279.228 4.639.39 7.08.196 2.442.44 4.769.733 6.983a74.122 74.122 0 0 0 1.025 6.006c.423 1.79.912 3.173 1.465 4.15.293.13.57.342.83.635.293.26.537.569.733.927.227.326.406.668.537 1.026.162.39.244.748.244 1.074Zm14.068-42.48c0 .553-.13.96-.39 1.22-.228.228-.668.342-1.319.342-.293 0-.748-.033-1.367-.098a21.7 21.7 0 0 1-1.904-.39 6.343 6.343 0 0 1-1.66-.684c-.456-.293-.684-.651-.684-1.074 0-.13.049-.488.146-1.074.098-.619.212-1.27.342-1.953.163-.684.293-1.302.391-1.856.13-.553.228-.862.293-.928v.049c.163-.26.358-.423.586-.488.228-.065.456-.098.683-.098.293 0 .668.049 1.123.147a6.87 6.87 0 0 1 1.416.342c.489.13.928.309 1.319.537.39.228.635.472.732.732.098.261.147.619.147 1.074.032.424.032.814 0 1.172 0 .13-.017.293-.049.488v.879l.098.489c.032.162.048.341.048.537.033.195.049.407.049.635Zm1.807 38.916c0 .748-.179 1.285-.537 1.611-.326.293-.863.439-1.612.439-.39 0-.83-.048-1.318-.146a10.794 10.794 0 0 1-1.367-.391 7.889 7.889 0 0 1-1.27-.683c-.39-.261-.683-.554-.879-.879-.13-.196-.244-.798-.341-1.807a73.58 73.58 0 0 1-.245-3.76 372.319 372.319 0 0 0-.146-5.029l-.098-5.615V274.65c.033-.325.098-.602.196-.83.13-.26.309-.472.537-.634.26-.163.618-.245 1.074-.245 1.432 0 2.474.407 3.125 1.221.684.781 1.107 1.839 1.269 3.174.163 1.986.277 3.971.342 5.957.098 1.953.179 3.939.244 5.957.066 1.823.114 3.63.147 5.42.065 1.758.179 3.516.342 5.273.032.358.065.7.097 1.026.033.325.082.651.147.976l.195 1.953c.065.619.098 1.27.098 1.954Zm30.181-8.79c0 .684-.113 1.384-.341 2.1-.228.716-.489 1.4-.782 2.051-.39.944-.862 1.872-1.416 2.783a13.652 13.652 0 0 1-1.904 2.393 9.008 9.008 0 0 1-2.441 1.66c-.912.423-1.937.635-3.076.635-2.019 0-3.695-.505-5.03-1.514a10.958 10.958 0 0 1-3.174-3.809c-.781-1.53-1.334-3.206-1.66-5.029a32.67 32.67 0 0 1-.439-5.176c0-1.204.049-2.62.146-4.248a58.71 58.71 0 0 1 .537-5.127 41.84 41.84 0 0 1 1.221-5.224c.553-1.726 1.253-3.256 2.1-4.59.846-1.367 1.871-2.474 3.076-3.321 1.237-.846 2.702-1.269 4.394-1.269.358 0 .879.065 1.563.195.683.13 1.351.326 2.002.586a5.14 5.14 0 0 1 1.758.977c.521.39.781.846.781 1.367 0 .488-.228.863-.684 1.123-.423.26-.944.456-1.562.586-.586.098-1.205.163-1.856.195h-2.392c-.912.814-1.66 2.018-2.246 3.614a29.158 29.158 0 0 0-1.368 5.029 50.717 50.717 0 0 0-.683 5.322c-.13 1.725-.195 3.141-.195 4.248 0 1.563.114 3.109.341 4.639a13.284 13.284 0 0 0 1.514 4.248c.163.293.391.635.684 1.025.325.358.683.537 1.074.537.293 0 .586-.244.879-.732a9.37 9.37 0 0 0 .879-1.709c.26-.651.472-1.286.634-1.904.163-.619.277-1.075.342-1.368.033-.13.049-.276.049-.439v-1.318c.033-.293.081-.521.147-.684.227-.553.52-.928.878-1.123.391-.195.863-.293 1.416-.293.489 0 1.01.065 1.563.195a5.462 5.462 0 0 1 1.562.635c.489.293.896.667 1.221 1.123.326.456.488.993.488 1.611Zm29.45 10.303c0 .651-.163 1.091-.489 1.319-.325.26-.781.39-1.367.39-1.53 0-2.637-.407-3.32-1.22-.651-.814-1.139-1.889-1.465-3.223l-.293-1.367a25.724 25.724 0 0 1-.244-1.416c-.065-.424-.13-.716-.195-.879-.065-.163-.131-.472-.196-.928-.39.944-.879 1.937-1.465 2.979a16.82 16.82 0 0 1-1.953 2.832 10.38 10.38 0 0 1-2.539 2.099c-.911.554-1.92.83-3.027.83-1.172 0-2.148-.276-2.93-.83a6.534 6.534 0 0 1-1.855-2.148 11.483 11.483 0 0 1-.928-2.881 19.295 19.295 0 0 1-.244-2.979c0-2.213.212-4.606.635-7.177a65.466 65.466 0 0 1 1.855-7.764 65.347 65.347 0 0 1 2.735-7.471c1.041-2.409 2.181-4.508 3.418-6.299v.049l.292-.439c.359-.488.765-1.009 1.221-1.563.488-.586 1.058-.879 1.709-.879.619 0 1.156.277 1.611.83.456.521.782 1.075.977 1.661.846.162 1.53.374 2.051.634.521.228.928.521 1.221.879.292.358.488.782.585 1.27.098.456.147.96.147 1.514v.732c0 .26-.016.521-.049.781-.032.261-.049.57-.049.928v.976c0 .326.049.749.147 1.27.13.521.26 1.058.39 1.611l.342 1.807c.163.944.293 2.018.391 3.223.13 1.204.277 2.408.439 3.613.13 1.237.261 2.441.391 3.613.13 1.14.26 2.197.391 3.174l1.171 7.227.147.83c.065.423.13.813.195 1.172.098.358.147.765.147 1.22Zm-11.182-28.076a1.31 1.31 0 0 0-.049-.293l-.097-.488a40.6 40.6 0 0 0-2.002 5.224 63.3 63.3 0 0 0-1.416 5.713 69.268 69.268 0 0 0-.83 5.811 64.785 64.785 0 0 0-.245 5.469v.439c0 .13.017.26.049.391v.049c.781-1.205 1.449-2.784 2.002-4.737a59.582 59.582 0 0 0 1.465-6.201 65.72 65.72 0 0 0 .83-6.299c.195-2.051.293-3.743.293-5.078Zm31.061 27.49c0 .358-.082.668-.245.928a1.692 1.692 0 0 1-.634.537 2 2 0 0 1-.782.244c-.26.065-.52.098-.781.098-.358 0-.781-.049-1.269-.147a7.056 7.056 0 0 1-1.368-.341 7.6 7.6 0 0 1-1.269-.586 2.81 2.81 0 0 1-.83-.928c-.195-.326-.374-.928-.537-1.807a54.524 54.524 0 0 1-.342-3.125 117.607 117.607 0 0 1-.244-3.808c-.065-1.367-.13-2.67-.195-3.906a549.801 549.801 0 0 0-.098-3.321v-2.246c0-2.279.032-4.476.098-6.592.097-2.148.195-4.345.292-6.591a2.53 2.53 0 0 0-.488.048 2.448 2.448 0 0 1-.488.049 17.522 17.522 0 0 1-2.637.195c-.553 0-1.041-.097-1.465-.292-.423-.196-.634-.635-.634-1.319 0-.814.179-1.465.537-1.953a3.527 3.527 0 0 1 1.367-1.123 5.608 5.608 0 0 1 1.807-.586 20.84 20.84 0 0 1 1.904-.293h.195c.033-.032.098-.049.195-.049a54.1 54.1 0 0 0 .098-1.416c.033-.586.065-1.22.098-1.904.032-1.074.081-2.214.146-3.418.065-1.237.13-2.409.196-3.516.065-1.139.146-2.132.244-2.978.097-.879.195-1.498.293-1.856.162-.423.341-.765.537-1.025.228-.26.635-.391 1.22-.391 1.303 0 2.312.424 3.028 1.27.716.846 1.074 1.888 1.074 3.125 0 1.432-.049 2.864-.146 4.297-.066 1.432-.131 2.881-.196 4.345l-.146 2.491a21.28 21.28 0 0 0 2.441-.44 58.45 58.45 0 0 1 2.344-.439c.814-.13 1.595-.196 2.344-.196.651 0 1.155.179 1.513.538.358.325.537.813.537 1.464a5.86 5.86 0 0 1-.39 2.1 2.927 2.927 0 0 1-1.367 1.563h.048c-.13.065-.52.162-1.171.292-.651.098-1.4.196-2.247.293l-2.441.293c-.781.098-1.367.163-1.758.196h-.049a314.817 314.817 0 0 0-.146 5.42 286.187 286.187 0 0 0-.049 5.371c0 2.506.065 5.176.195 8.008.163 2.799.424 5.468.782 8.007l.39 2.198c.131.553.244 1.106.342 1.66.098.521.147 1.041.147 1.562Zm20.855-39.843c0 .553-.13.96-.391 1.22-.227.228-.667.342-1.318.342-.293 0-.749-.033-1.367-.098a21.625 21.625 0 0 1-1.904-.39 6.364 6.364 0 0 1-1.661-.684c-.455-.293-.683-.651-.683-1.074 0-.13.049-.488.146-1.074.098-.619.212-1.27.342-1.953.163-.684.293-1.302.391-1.856.13-.553.228-.862.293-.928v.049c.162-.26.358-.423.586-.488.228-.065.455-.098.683-.098.293 0 .668.049 1.123.147a6.87 6.87 0 0 1 1.416.342c.489.13.928.309 1.319.537.39.228.634.472.732.732.098.261.147.619.147 1.074.032.424.032.814 0 1.172 0 .13-.017.293-.049.488v.879l.097.489c.033.162.049.341.049.537.033.195.049.407.049.635Zm1.807 38.916c0 .748-.179 1.285-.537 1.611-.326.293-.863.439-1.612.439-.39 0-.83-.048-1.318-.146a10.746 10.746 0 0 1-1.367-.391 7.889 7.889 0 0 1-1.27-.683c-.39-.261-.683-.554-.879-.879-.13-.196-.244-.798-.342-1.807a73.725 73.725 0 0 1-.244-3.76 372.319 372.319 0 0 0-.146-5.029l-.098-5.615V274.65c.033-.325.098-.602.196-.83.13-.26.309-.472.537-.634.26-.163.618-.245 1.074-.245 1.432 0 2.474.407 3.125 1.221.683.781 1.107 1.839 1.269 3.174.163 1.986.277 3.971.342 5.957.098 1.953.179 3.939.244 5.957.065 1.823.114 3.63.147 5.42.065 1.758.179 3.516.342 5.273.032.358.065.7.097 1.026.033.325.082.651.147.976l.195 1.953c.065.619.098 1.27.098 1.954Zm32.134-17.872c0 2.832-.244 5.665-.732 8.497a22.98 22.98 0 0 1-2.881 7.959 19.476 19.476 0 0 1-1.562 2.197 13.193 13.193 0 0 1-1.953 1.855 7.802 7.802 0 0 1-2.295 1.367 6.343 6.343 0 0 1-2.588.538c-1.433 0-2.686-.342-3.76-1.026-1.042-.651-1.953-1.513-2.734-2.588a18.037 18.037 0 0 1-1.905-3.711 32.891 32.891 0 0 1-1.172-4.248 53.582 53.582 0 0 1-.586-4.248 51.784 51.784 0 0 1-.146-3.613c0-1.172.049-2.458.146-3.857.098-1.4.261-2.832.489-4.297.26-1.465.586-2.914.976-4.346a21.96 21.96 0 0 1 1.612-4.004 14.81 14.81 0 0 1 2.343-3.369 10.352 10.352 0 0 1 3.174-2.393v.049c1.042-.553 2.084-.83 3.125-.83.651 0 1.156.147 1.514.44.358.26.521.716.488 1.367 1.791.325 3.239 1.188 4.346 2.588 1.107 1.399 1.953 3.027 2.539 4.882a26.357 26.357 0 0 1 1.221 5.713c.228 1.953.341 3.646.341 5.078Zm-11.035-12.207c-.553 0-1.074-.211-1.562-.634-.619.944-1.14 2.034-1.563 3.271a27.731 27.731 0 0 0-1.025 3.76 37.594 37.594 0 0 0-.488 3.857 48.955 48.955 0 0 0-.147 3.662c0 .944.049 2.165.147 3.663.097 1.464.276 2.946.537 4.443a26.295 26.295 0 0 0 1.172 4.199c.52 1.302 1.188 2.263 2.002 2.881 1.009-.586 1.839-1.514 2.49-2.783a19.452 19.452 0 0 0 1.611-4.248c.391-1.53.651-3.076.781-4.639.163-1.562.245-2.897.245-4.004 0-.814-.049-1.872-.147-3.174a42.374 42.374 0 0 0-.488-3.955 21.735 21.735 0 0 0-.977-3.808c-.39-1.172-.895-2.051-1.513-2.637-.293.098-.652.146-1.075.146Zm29.157 31.983c0 .749-.228 1.237-.684 1.465-.423.228-.944.341-1.563.341a9.508 9.508 0 0 1-1.66-.146 5.051 5.051 0 0 1-1.513-.439 4.2 4.2 0 0 1-1.221-.928c-.326-.391-.553-.895-.684-1.514a29.75 29.75 0 0 1-.781-5.713 168.916 168.916 0 0 1-.098-5.81v-6.006c0-2.735.114-5.567.342-8.496.228-2.962.472-5.811.733-8.545 0-.098.016-.212.048-.342a1.31 1.31 0 0 0 .049-.293c.033-.358.082-.749.147-1.172.065-.423.163-.797.293-1.123.163-.358.374-.651.635-.879.293-.228.667-.342 1.123-.342.52 0 1.009.114 1.464.342a3.74 3.74 0 0 1 1.27.83c.358.326.635.733.83 1.221.228.488.342.993.342 1.514 0 .553-.016 1.172-.049 1.855-.033.651-.081 1.27-.146 1.856 0 .162-.017.341-.049.537 0 .195-.017.374-.049.537a42.03 42.03 0 0 1 1.562-2.832 15.616 15.616 0 0 1 2.002-2.735 10.687 10.687 0 0 1 2.539-2.05c.944-.521 1.986-.782 3.125-.782.944 0 1.726.147 2.344.44a3.477 3.477 0 0 1 1.465 1.269c.391.521.651 1.14.781 1.856.163.716.244 1.481.244 2.295 0 1.107-.032 2.23-.097 3.369l-.196 3.32c-.097 1.14-.179 2.263-.244 3.369a57.483 57.483 0 0 0-.097 3.37c0 1.367.032 2.783.097 4.248.065 1.432.163 2.815.293 4.15.13 1.302.277 2.49.44 3.564.162 1.042.325 1.856.488 2.442.13.488.26 1.058.391 1.709.162.618.309 1.269.439 1.953.163.651.293 1.286.391 1.904.097.619.146 1.172.146 1.66 0 .717-.293 1.172-.879 1.368a4.967 4.967 0 0 1-1.66.293c-.553 0-1.188-.049-1.904-.147a4.922 4.922 0 0 1-1.856-.537c-.683-.488-1.139-1.172-1.367-2.051a18.466 18.466 0 0 1-.39-2.588l-.147-1.318c-.098-.781-.228-1.807-.391-3.076-.162-1.27-.325-2.67-.488-4.199a192.88 192.88 0 0 1-.342-4.737 82.913 82.913 0 0 1-.146-4.834c0-1.4.049-2.75.146-4.053.131-1.302.261-2.62.391-3.955.065-.683.114-1.237.146-1.66.033-.423.082-.976.147-1.66-.651 1.042-1.302 2.262-1.953 3.662a68.694 68.694 0 0 0-1.856 4.395 104.832 104.832 0 0 0-1.611 4.394 56.406 56.406 0 0 0-1.074 3.76l-.293 1.074a28.537 28.537 0 0 0-.44 1.563 8.027 8.027 0 0 0-.146 1.465c0 .586.032 1.269.098 2.05.065.749.146 1.465.244 2.149.097.814.211 1.644.341 2.49 0 .065.033.277.098.635s.13.781.195 1.269c.066.489.114 1.009.147 1.563.065.521.098.993.098 1.416Z"/>
</svg>
